<?xml version="1.0" encoding="utf-8"?>
<!-- Generator: Adobe Illustrator 26.0.1, SVG Export Plug-In . SVG Version: 6.00 Build 0)  -->
<svg version="1.1" id="Capa_1" xmlns="http://www.w3.org/2000/svg" xmlns:xlink="http://www.w3.org/1999/xlink" x="0px" y="0px"
	 viewBox="0 0 600.6 600.7" style="enable-background:new 0 0 600.6 600.7;" xml:space="preserve">
<style type="text/css">
	.st0{fill:#FFFFFF;}
	.st1{fill:#E0DCD5;}
	.st2{fill:#DAD3D4;}
	.st3{fill:#CBCBCB;}
	.st4{fill:#727272;}
	.st5{fill:#D8D9D9;}
	.st6{fill:#D4D3D4;}
	.st7{fill:#919090;}
	.st8{fill:#ABA8A8;}
	.st9{fill:#DADBE0;}
	.st10{fill:#C2C2C3;}
	.st11{fill:#E4E0D3;}
	.st12{fill:#C6C6C6;}
	.st13{fill:#CECBCD;}
	.st14{fill:#D3D2D3;}
	.st15{fill:#DFD7C4;}
	.st16{fill:#DDDCDB;}
	.st17{fill:#B9B9B9;}
	.st18{fill:#D6D6D6;}
	.st19{fill:#CACACA;}
	.st20{fill:#DEDDDE;}
	.st21{fill:#BDBDBD;}
	.st22{fill:#9FA0A0;}
	.st23{fill:#EDE2CB;}
	.st24{fill:#E7E1D9;}
	.st25{fill:#DCDCDC;}
	.st26{fill:#C5BCAF;}
	.st27{fill:#C6C5C5;}
	.st28{fill:#DBDADB;}
	.st29{fill:#959495;}
	.st30{fill:#6D6D6D;}
	.st31{fill:#7D7C7D;}
	.st32{fill:#B4B7BE;}
	.st33{fill:#BFBFBF;}
	.st34{fill:#A9926A;}
	.st35{fill:#A9935F;}
	.st36{fill:#D9C37A;}
	.st37{fill:#B5BACC;}
	.st38{fill:#AFA89D;}
	.st39{fill:#BEB191;}
	.st40{fill:#D7C692;}
	.st41{fill:#A19686;}
	.st42{fill:#A38859;}
	.st43{fill:#AD9DA4;}
	.st44{fill:#CABE8F;}
	.st45{fill:#70563A;}
	.st46{fill:#ACA494;}
	.st47{fill:#C0B5BB;}
	.st48{fill:#988A76;}
	.st49{fill:#9B8C84;}
	.st50{fill:#D8C874;}
	.st51{fill:#666666;}
	.st52{fill:#98989A;}
	.st53{fill:#737374;}
	.st54{fill:#AAA8A8;}
	.st55{fill:#C6C4C4;}
	.st56{fill:#252524;}
	.st57{fill:#373737;}
	.st58{fill:#585758;}
	.st59{fill:#8E8E8E;}
	.st60{fill:#ABACAC;}
	.st61{fill:#7E7E7E;}
	.st62{fill:#454545;}
	.st63{fill:#666565;}
	.st64{fill:#A8A5A5;}
	.st65{fill:#8D8A8A;}
	.st66{fill:#6F6D6D;}
	.st67{fill:#A8A7A8;}
	.st68{fill:#ABAEB8;}
	.st69{fill:#BAB9BA;}
	.st70{fill:#F8F590;}
	.st71{fill:#B19D70;}
	.st72{fill:#9A9A9B;}
	.st73{fill:#B6AE98;}
	.st74{fill:#CBB96C;}
	.st75{fill:#D7C59E;}
	.st76{fill:#8D8C8D;}
	.st77{fill:#969595;}
	.st78{fill:#333334;}
	.st79{fill:#926A49;}
	.st80{fill:#9B8B68;}
	.st81{fill:#787777;}
	.st82{fill:#383737;}
	.st83{fill:#4C4B4B;}
	.st84{fill:#898D96;}
	.st85{fill:#979DA4;}
	.st86{fill:#979796;}
	.st87{fill:#A7A6A0;}
	.st88{fill:#A09993;}
	.st89{fill:#BF994C;}
	.st90{fill:#97743D;}
	.st91{fill:#6F5037;}
	.st92{fill:#A27A39;}
	.st93{fill:#CCB170;}
	.st94{fill:#BC9346;}
	.st95{fill:#715A41;}
	.st96{fill:#D9B15B;}
	.st97{fill:#8D7B85;}
	.st98{fill:#686767;}
	.st99{fill:#212121;}
	.st100{fill:#424242;}
	.st101{fill:#292929;}
	.st102{fill:#484747;}
	.st103{fill:#5C5B5D;}
	.st104{fill:#2B2B2B;}
	.st105{fill:#5E5F5F;}
	.st106{fill:#817F7E;}
	.st107{fill:#727070;}
	.st108{fill:#060606;}
	.st109{fill:#121212;}
	.st110{fill:#484848;}
	.st111{fill:#615F60;}
	.st112{fill:#353435;}
	.st113{fill:#3F3E3D;}
	.st114{fill:#21201F;}
	.st115{fill:#565453;}
	.st116{fill:#1C1B1C;}
	.st117{fill:#3F3D3D;}
	.st118{fill:#908C8F;}
	.st119{fill:#A2A1A3;}
	.st120{fill:#C8A94D;}
	.st121{fill:#B99B52;}
	.st122{fill:#E9C968;}
	.st123{fill:#855629;}
	.st124{fill:#33181C;}
	.st125{fill:#8F7851;}
	.st126{fill:#735536;}
	.st127{fill:#8E877C;}
	.st128{fill:#523120;}
	.st129{fill:#525152;}
	.st130{fill:#807166;}
	.st131{fill:#191919;}
	.st132{fill:#62250B;}
	.st133{fill:#7B4623;}
	.st134{fill:#343333;}
	.st135{fill:#1B1A1A;}
	.st136{fill:#906B39;}
	.st137{fill:#050505;}
	.st138{fill:#222222;}
	.st139{fill:#5E5C5A;}
	.st140{fill:#363535;}
	.st141{fill:#5B5959;}
	.st142{fill:#5C5A59;}
	.st143{fill:#4B4949;}
	.st144{fill:#1C1B1A;}
	.st145{fill:#1B1B1B;}
	.st146{fill:#3A3938;}
	.st147{fill:#B08626;}
	.st148{fill:#353333;}
	.st149{fill:#6B4C2B;}
	.st150{fill:#191818;}
</style>
<circle class="st0" cx="301.5" cy="300.5" r="299.5"/>
<path class="st1" d="M304.9,194.7c5.8,6,11,12.4,17.7,17.5c7.3,5.7,24.4,7.3,31.9,2.5c2.5-1.6,0.7-2.4-0.6-3.1
	c-6-3.5-10.5-8.6-14.5-14.1c-4.3-5.9-8.1-12-9-19.4c-0.1-1.2-0.2-2.6-1.7-2.9s-2.1,1-2.8,2c-3.5,5-8.5,8.5-13.5,11.9
	c-2.1,1.4-4.4,3.1-6.6-0.1c-2.1-3-0.6-5.4,1.6-7.1c3.5-2.7,6.3-6,9.2-9.2c5.2-5.7,7.8-12.6,10.2-19.6c1.8-5.3,4.7-10.6,4.3-16.5
	c0.4-0.3,1-0.2,1.3,0.1l0,0c1,1.6,0.8,3.3,0.8,5c0,0.7-0.2,1.4-0.3,2.1c-2.1,8.8-5.4,17.3-9.9,25.3c-1.3,2.3-2.9,4.3-4.8,6.1
	c-2.9,3.1-6.4,5.6-8.6,9.2c0.9,3.4,2.9,1.4,4,0.6c3.3-2.4,6.7-4.6,9.1-8c1.1-1.6,2.4-3.1,3.9-4.4c4-1.3,5.8,0.9,6.4,4.2
	c2.2,11.7,9,20.6,17.2,28.7c1.4,1.3,2.7,2.9,5.3,2.8c-0.3-2.7-2.2-4.2-3.6-6c-1.1-1.4-2.8-2.5-2-4.7c0.3-0.3,0.7-0.4,1.1-0.1l0,0
	c3.2,3.6,6.4,7.2,9.5,10.9c1.4,1.7,2.5,1.8,4.5,0.3c13.7-10.2,24.6-23,34.4-36.8c2-2.8,4.4-5.3,6.3-8.3c2.1-3.3,2.2-6.3,0.5-10.4
	c-2.8-6.5-4.2-13.9,1-20.5c0.8-1.1,1.5-2.2,2.2-3.4c4.5-7.9,12.3-9,19.2-2.8l-0.5,0.5c-0.6,0.3-1.3,0.4-2,0.2
	c-0.4-0.1-0.9-0.3-1.2-0.5c-6-3.2-10.3-1.9-13.5,4c-0.7,1.2-1.3,2.4-2,3.5c-3.3,5.3-2.3,14,2.4,18.4c2.2,2.1,2.2,4.1,0.5,6.4
	c-1,1.3-2.2,2.5-3,4c-9.7,15.3-21.2,29.4-34.4,41.8c-6.2,5.9-13.6,9.8-21.2,13.6c-11.2,4.1-21.9,3-31.9-3.2
	c-3.9-2.3-7.4-5.2-10.3-8.6c-0.8-2.3-2.7-3.9-4.2-5.7c-1.4-1.7-3.2-3.2-2.8-5.8L304.9,194.7z"/>
<path class="st2" d="M260.3,216.8c-2.1,3.5-5.7,4.8-9,6.5c-6,3-12,5.7-18.6,6.8c-3.3,0.6-6.7,0.5-9.2-2.5c-1.4-1.7-3.2-1.9-5.3-1.9
	c-6-0.1-12.1,0.8-18.1-0.7c-13.4-3.4-25.3-11.2-33.7-22.2c-7.9-10.1-14.6-21.1-18-33.2c-2.3-8.1-7.7-12.9-12.5-18.8
	c-5.1-6.2-5.7-14,0.4-22.5c5.1-7.1,13.1-7.7,19.2-1.3c2.4,2.3,4.3,5,5.9,8c1.4,2.9,1.2,6.4-0.6,9.1c-2.2,3.4-4.1,7.1-6.2,10.6
	c-1.1,2-1.1,4.5,0.1,6.5c7.3,15,14.4,30.2,28.3,40.7c2.2,1.6,4.2,3.9,7.3,4c4.8,0.6,9.5,1.1,14.2-0.5c0.7-0.2,1.5-0.1,2.1,0.3
	c0,2.8-2.2,2.9-4,3.1c-2.8,0.2-5.7,0.2-8.5,0.1c-5.6,0.2-10.3-2.3-14.4-5.6c-6.6-5.5-12.6-11.4-16.6-19c-2.3-4-4.3-8.2-6.4-12.3
	c-1.1-4.8-4.7-8.6-5.6-13.5c-0.2-1.3-0.6-2.9,0-4c2.2-4,3.1-7.6,0.3-11.9c-1.4-2.1,1-4,4.3-3.8c1,0.1,2.2,0.8,2.8-0.5
	c0.4-1,0.1-2.2-0.8-2.9c-2.5-2.8-2.6-7.6-7.1-8.8c-8.4-2.1-15.3,4-14.4,12.6c0.5,4.9,1.5,9.2,5.6,12.7s7.6,8.3,8.4,14.1
	c1,2.2,1.9,4.5,2.6,6.8c7,18.6,17.8,34.2,35.4,44.2c4.2,2.4,8.7,4.2,13.5,5.2c4.9,0.3,9.8,1.3,14.8,0.6c3.8-0.6,7.5-0.4,10.5,2.7
	c1.4,1.4,3.5,1.9,5.5,1.3c5.9-1.4,11.7-2.7,17-5.9c3.1-1.6,6.1-3.5,8.9-5.6c0.4-0.2,0.9-0.2,1.3-0.1
	C260.1,215.6,260.6,215.9,260.3,216.8z"/>
<path class="st3" d="M62.6,243.1c2.5-2.3,5.4-3.3,8.9-4c6.2-1.2,12.3-2.9,18.3-5c14.2-4.8,28.2-2.8,41.6,2.2
	c9.2,3.5,17.7,8.8,26.6,13c7.3,3.5,14.8,6.5,21.5,11c8.6,5.7,18.9,8.8,26.5,16.2c2,2,4.9,2.9,7.3,4.5c9.1,6.2,19.6,9.7,29.6,14.2
	c6.3,2.8,11.3,7.4,17.2,10.8c5.3,3,7.9,17.6,4.8,22.6c-2.8,4.4-7.8,5.5-12,4.9c-7.9-1.2-15.7-3.5-21-10.5c-0.3-0.2-0.4-0.7-0.1-1
	c0-0.1,0.1-0.1,0.1-0.1c0.6-0.2,1.3-0.5,1.7-0.1c3.5,3.3,8,4.4,12.2,6.4c5.1,2.4,12.7,1.6,15.6-2.4c2.3-3.3,0.4-10.7-3.2-14.5
	c-7.5-8.2-16.9-14.3-27.3-17.9c-9.2-3.1-16.2-9.8-24.8-13.6c-0.4-0.2-0.7-0.5-1-0.7c-1.9-1.6-3.4-3.7-5.9-4.4
	c-11.6-5.8-22.6-12.9-34.3-18.5c-9.9-4.7-19.3-10.1-29.4-14.4c-15.3-8-31.3-7.9-47.7-4c-4.7,0.1-8.9,2.6-13.5,3.2
	c-0.4,0.1-0.9,0.3-1.3,0.4c-3,0.6-5.8,1.9-8.1,3.8c-0.7,0.6-1.5,1.2-1,2.2c0.4,0.8,1.2,0.7,2,0.8c2.4,0.3,4.8-0.5,7.2-0.7
	c2.1-0.2,4.2-0.4,6.2,0.6c0.7,0.4,1.1,1,0.3,1.7c-2.6,0.5-5.3-0.6-7.9,0.6l0,0c-2.8,0.9-5.6,0.2-8.4,0.4c-1.7,0.1-3.4,0.1-4.2-1.7
	c-1-2,0.5-3.3,1.7-4.6C61.4,243.9,62,243.5,62.6,243.1z"/>
<path class="st4" d="M401.4,278.7c0.3,0,0.5-0.1,0.7-0.2c5-5.7,11.8-8.9,18.4-12.1s12.4-7.4,18.9-10.4c4.5-2.1,9.1-3.9,13.5-6.3
	c8-4.4,16.2-8.3,24.4-12.3c1.3-0.5,2.6-0.8,3.9-1c6.7-0.9,13-3.8,20-3.7c9.4,0.1,18.3,2.2,27.1,4.9c3.5,1.1,7,2,10.5,2.8
	c2.4,0.5,4.6,1.7,6.2,3.4c1,1.1,2.4,2.3,1.7,3.9c-0.7,1.8-2.5,2-4.2,2c-4.1,0-8.1-0.4-12.2-0.2c-14.5,0.6-28.7,4.5-41.5,11.4
	c-1.9-1.3-1.9-1.4,0.6-4.2c0.3-0.3,0.7-0.6,1.1-0.8c3-1.3,6-2.5,9.1-3.6c2.8-0.6,5.3-2.3,8.1-3.1c9.9-3.2,20.4-4.4,30.8-3.5
	c0-2-1.2-1.9-2.1-2.1c-5.2-0.8-10.3-2.4-15.4-3.8c-14.4-3.9-28.9-4.1-43,2.1c-10.3,4.6-20.1,10.4-30.6,14.6
	c-12.4,6.3-24.4,13.5-36.9,19.9c-2.7,1.4-5.1,3.3-7,5.6c-3.6,4.4-9.1,5.8-13.6,8.7c-0.7,0.4-1.5,0.4-2.2,0c-0.4-0.3-0.6-0.7-0.7-1.1
	c1.5-3.6,4.9-5.1,7.9-6.7C397.4,281.7,399.5,280.3,401.4,278.7z"/>
<path class="st5" d="M79.8,345.1c-9.3-9-18.9-17.8-25.8-29c-1-1.6-2.4-3.3-0.6-4.8c1.4-1.1,3.1,0.1,4.4,1.1
	c7,5.8,13.8,11.6,20.9,17.2c7.1,5.5,14.7,10.4,22.6,14.7c5.8,3.2,11.5,6.5,17.2,9.7c8.7,5,18,7.7,28,9.2c12.2,1.8,23.8-1,35.2-3.9
	c12.2-3.1,24.4-5.7,36.9-5.3c6.8,0.2,13.4,1.8,18.9,6.2l-0.3,0.2c-0.7,0.7-1.7,0.9-2.6,0.7c-2.2-0.6-4.3-1.5-6.5-2.2
	c-0.4-0.2-0.8-0.4-1.2-0.7c-6.3-2.2-12.7-2.2-19.2-1.2c-7.3,1.1-14.8,1-21.7,4c-2.3,0.9-4.6,1.6-7,2.1c-10,3-20.3,3-30.6,3
	c-11,0-20.9-3.7-30.2-8.8c-8.9-4.9-17.9-9.6-26.3-15.1c-8.2-5.2-16.1-10.8-23.5-17c-1.6-2.5-4.1-4.3-7-5c0.5,2.7,2.3,4.2,3.6,5.9
	c3.9,4.9,8.2,9.5,12.8,13.8c1.1,1.1,2.5,2.2,2.6,4C80.4,344.5,80.2,344.9,79.8,345.1z"/>
<path class="st6" d="M582.5,370.4c1.1-3.1,2.9-6,5.2-8.4c1-1.1,1.7-2.3,0.4-3.5s-2.4-0.5-3.6,0.3c-3.8,2.7-7.7,5.3-11.6,7.9
	c-1.4,1-2.8,1.4-4.1,0.2c-1.5-1.4-1-3,0.2-4.4c1.6-2,3.3-3.9,4.8-6c0.7-0.8,0.7-2.1-0.1-2.9c-0.8-0.7-1.7-0.2-2.5,0.3l-6,4.1
	c-2.7,1.9-5.3,2.8-8.9,1.9c-2.9-0.8-5.6,1.7-8.5,2.5c-3.2,0.8-5.8,1.8-6.7-3c-0.4-2.4-3-3.3-5.3-3.5c-1.5-0.1-3,0-4.5,0
	c-6.2,0-6.2,0-6.2-6.4c-1.3-2.1,0.3-3.5,1.4-4.7c3.1-3.6,6.3-7.2,9.7-10.6c4.5-3.4,8.2-7.8,10.6-12.8c-4.1,1-5.9,3.5-8.4,5.1
	c-1.3,0.8-2.3,2.6-4.3,1.2c5.2-5.7,11.6-10.1,17.5-15c1.1-1,2.4-1.8,3.7-0.9c1.5,1.2,0.7,2.9-0.2,4.1c-3.5,4.6-6.3,9.6-10.4,13.7
	c-5.6,5.6-11.3,11-16.2,17.1c-1.5,1.8-3.2,3.6-2,6c1,2.3,3.5,1.4,5.3,1.4c3.6,0.1,7.3,0,10.9,0c2.8,0,5,0.4,3.7,4.1
	c-0.8,2.3,0,3.7,2.7,2.5c3.7-1.6,6.7-5.3,11.6-1.8c0.9,0.6,4.7-2.6,7-4.2c1.3-1.1,2.5-2.2,3.6-3.5c1.1-1.1,2.2-2.3,3.9-1.1
	c1.6,1,2.3,3,1.5,4.8c-0.8,2.4-3.2,3.6-4.3,5.8c-0.5,1.1-2.4,2-0.9,3.5c1.3,1.3,2.1-0.3,3.2-0.6c2.8-1.1,5.4-2.8,7.5-5
	c1-0.9,2.1-1.7,3.3-2.4c1.4-0.7,3-2.1,4.5-0.5c1.2,1.3,1.3,3.3,0.2,4.6C587.6,363.8,585.9,367.8,582.5,370.4z"/>
<path class="st7" d="M429.4,291.2c-13.6,7.2-27.8,13.2-39.5,23.5c-4.5,4-10.9,4.5-15.3,8.6c-0.5,0.5-1,1.1-1.5,1.6
	c-0.9,0.8-2,1.3-3.1,1.8c-3,0.2-5.9,1.2-8.3,3c-3.9,3-9.6-0.2-9.6-5.4c0-5.4,0.3-10.9,2.2-16.1c1.7-4.5,5.9-6.2,9.6-8.4
	c6.9-5.3,15.1-8.9,23.6-10.4l0.1,1.1c0.2,0.9-0.3,1.8-1.1,2.2c-0.6,0.3-1.2,0.5-1.8,0.7c-5.1,2.1-10.5,3.6-15,6.9
	c-2.6,2.4-4.9,5.3-8.8,6.1c-1.7,0.4-2.9,1.8-3,3.6c-0.1,4.5-1.5,8.9-1.1,13.5c0.1,1.2,0,2.5,1.3,3.2c1.4,0.8,2.2-0.5,3.1-1.2
	s1.8-2,3-2c8.5,0.2,13.4-7.5,20.9-9.4c12.1-10.5,26.7-16.9,40.6-24.4c11.7-6.4,24.6-10.1,35.7-17.3c1.9-1.5,3.7-3.2,6.2-3.9
	c3.7-1.4,7.2-3.2,10.8-4.8c1.5-0.7,2.9-1.8,4.7-0.9c0.6,2.6-1.8,2.8-3.2,3.6c-6.9,3.6-14.3,6.4-20.6,11.1c-1.1,0.7-1.9,2.1-3.5,2.1
	c-3.6,1.9-7.7,2.8-11.1,5.2c-0.3,0.1-0.5,0.1-0.8,0.2c-1.1,1.1-2.4,1.9-3.8,2.5C436.6,288.1,432.9,289.3,429.4,291.2z"/>
<path class="st8" d="M363.1,365c1.8-0.1,2.8-1.4,3.7-2.7c0.7-0.7,1.6-0.5,2.5-0.4c1.2,3.3-2.7,3.9-3.6,6.4c3.7-0.2,7.1-1.7,10.4,0.1
	c1.4,1.3,2.3,3,4.6,3.3c2.8,0.4,3.1,2.4,2,4.8c-0.6,1.4-1.6,2.6-2.7,3.6c-2.5,2.2-2.3,3.5,1,4.5c2.3,0.7,4.7,1.4,7.1,0.9
	c3.2-0.7,5.4,0.1,6.1,3.5c0.1,0.9,0.6,1.8,1.3,2.3c4.2,2.3,7.8,5.5,10.5,9.4c1.9,2.6,6.4,2.2,9.7,2.9c4.4,1,7.8,3.4,11.3,6
	c0.1,0.5-0.1,0.9-0.4,1.2c-1.3,0.8-2.9,0.9-4.4,0.5c-0.5,0-0.9-0.2-1.3-0.4c-3.3-2.3-6.5,2.7-9.4,0.3c-2.5-2-4.2-4.6-8-4.3
	c-1.8,0.1-3.4-0.9-4-2.6c-2.1-4.4-5.9-6.4-10.3-7.3c-2.4-0.5-4.1-1.6-3.6-4.2s-1.2-3-3.2-3c-1.8,0-3.6-0.2-5.4-0.7
	c-5.4-1.8-6.3-5.6-2.4-9.5c0.5-0.5,1.2-1,1.7-1.4c0.3-2.5-3.2-6.4-5.9-6.6c-1.1,0-2.1,0.2-3.1,0.5c-0.5,0.1-0.9,0.1-1.4,0.1
	s-0.9,0-1.3,0c-1.7-0.1-3.8,0.7-4.7-1.4s0.5-3.6,2-4.9C362.4,365.7,362.8,365.4,363.1,365z"/>
<path class="st9" d="M351.2,197.6l-1,0.1c-2.4,0.1-3.4-1.7-4.6-3.3c-7.6-16.7-9.7-34.4-9.3-52.5c0-2.9,0-5.8,1.2-8.4
	c2.3-5.1,1-10-0.3-15c-0.4-1.7-1.3-2.9-3.2-2.2c-1.9,0.7-2.5,2.1-1.8,4c0.4,1,1,1.9,1.8,2.7c1.4,1.7,2,3.5,0.5,5.3
	c-2.1,2.5,0,6.1-2.3,8.5h-0.9c-0.8-2.9-1.5-5.8-0.2-8.9c0.5-1,0.3-2.2-0.4-3c-2.2-2.4-2.8-5.9-1.4-8.9c0.6-1.6-0.2-2.9-1.4-4
	c-1.1-1-1.7-2.6-1.4-4.1c0.3-1.9,9.8-7.8,11.7-7.3c2.4,0.6,5.1,1.6,4.8,4.5c-0.4,3.5,0.7,7.2-0.8,10.6c-0.7,1.7-0.8,3.5-0.3,5.3
	c0.9,3.1,0.8,6.3-0.1,9.4c-4,11.4-2.3,23-0.9,34.5c0.4,3,1.1,5.9,1.4,8.9C342.8,182.5,346.2,190.3,351.2,197.6z"/>
<path class="st10" d="M459.5,277.5c2.8-3.4,6.8-5.1,10.5-7.1c4.4-2.4,9.6-3.5,13.2-7.3c0.9-2,2.6-2.6,4.6-2.7
	c14.2-8,29.6-11.9,45.8-12.5c3.4-0.1,6.9,0.4,10.4,0.6c0.9,0,2-0.1,2.3-1.1s-0.5-1.6-1.1-2.2c-1.5-1.5-3-3.1-5.1-3.7
	c-14-3.4-27.7-8.9-42.6-7.7c-5.8,0.4-11.1,2.9-16.9,2.9c-0.2-0.1-0.3-0.4-0.2-0.6c0.1-0.2,0.2-0.3,0.2-0.3l7.2-1.9
	c11.1-3.3,22.1-2.7,33,0.9c9.2,2.1,18.7,3.2,26.7,8.6c2.1,1.4,5.5,3.1,4.6,6.1c-1,3.4-4.8,1.9-7.2,1.6c-17.6-2.7-34.2,1.3-50.2,7.9
	c-6.2,2.6-11.5,7.2-17.7,10C471.1,271.7,465.3,274.7,459.5,277.5z"/>
<path class="st11" d="M206.4,205.7c-5.4,0.9-10.9,1.9-16.3,0c7.1,0.2,13.8,0.3,19.8-5.3c6.6-6.3,10-14,11.9-22.4
	c2.8-12.8,4.1-25.9,3.9-39c0-3.9-1.1-5.3-5.2-5.3c-6.1,0.1-13.5-8.2-14.1-14.1c-0.7-6.5,1.3-12.1,4.6-17.5c3.6-6,9.4-7.3,16.4-3.7
	c-0.5,0.5-1.1,0.9-1.9,1c-7.7-1.2-12.2,2.5-14.8,9.5c-1,2.6,0.1,5.2-0.3,7.5c-1,5.9,3,8.7,6.1,12.2c1.1,1.3,2.6,2.1,4.3,2.4
	c6.7,1.1,7.5,2,7.8,8.7c0,0.8,0,1.5,0,2.3c0.4,13.1-0.9,26.1-3.9,38.8c-0.5,2.5-1.3,5-2.4,7.2c-2.5,4.8-4.7,9.8-8.4,13.9
	c-1.5,1.9-3.4,3.4-5.6,4.5C207.6,206.4,206.9,206.2,206.4,205.7z"/>
<path class="st12" d="M369.5,362.3h-2.7c13.1-7.8,26.9-9.8,42-6.8c12,2.4,23.6,5.9,35.6,8c8.2,1.5,16.5,0.7,24.7-1
	c10.7-2.2,20.2-7,29.5-12.7c4.4-2.7,9.2-5,13.8-7.6c1.2-0.6,2.2-1.9,3.8-0.9c0.3,2.1-1.2,3.1-2.6,3.8c-10.2,5.1-19.5,11.9-30.2,16.2
	c-5.9,2.3-12,4.2-18.2,5.5c-14.7,1.7-28.7-1.4-42.8-5.1c-12.8-3.4-25.8-5.9-39.2-2.9c-2.6,0.6-5.2,1.5-7.7,2.6
	C373.6,362.3,371.7,363.6,369.5,362.3z"/>
<path class="st13" d="M225.6,98.4h1.8c3.9,2.4,6.2,6.2,8.4,9.9c1.5,2.4,1.2,5.5-0.8,7.5c-2.9,3.1-3.3,6.8-2.5,10.9
	c2,10.8,5.3,21.3,9.7,31.3c4.2,9.3,8.8,18.4,17.4,24.8c4.4,3.3,4.5,6.9,0.8,11.1l-0.5-0.5c0.9-5.3-2.2-8.3-5.8-11.6
	c-6.2-5.6-10.2-13.1-13.8-20.5c-3.8-7.8-6.3-16.2-8.4-24.7c0.2-4.8-2.5-8.6-4.1-12.8c-1.2-3.4-2.1-6.9-3.6-10.1
	c-1.3-2.8-0.5-5,2.4-6.2c5.2-2.2,5.2-2.1,0.8-6.1c-0.4-0.2-0.7-0.5-1-0.8C225.7,100.1,225.2,99.4,225.6,98.4z"/>
<path class="st14" d="M232,322.1l-0.1,1c-8-2.1-14.2-7.2-20.2-12.5c-1.1-1-2.4-1.8-3.8-2.3c-6.4-2.1-11.5-6.4-17.3-9.7
	c-6.3-3.5-12.4-7.2-19.3-9.6c-8-2.8-15.2-7.2-22.6-11.2c-6.4-3.5-12.9-7-19.7-9.9c-3.1-1.4-5.7-3.4-8.5-5.1
	c-11.9-7.2-24.9-10.3-38.4-11.6c-3.4-0.3-6.9-0.6-10.4-0.8c2.6-1.9,5.5-0.5,8.2-1c2.6-2,5.5-1.3,8.3-0.9c7.6,1.3,14.9,3.7,22.2,6.2
	c13.9,7.7,28.1,14.8,42,22.5c7.1,3.8,14.3,7.1,21.8,9.9c8.8,3.5,16.7,9.2,25.3,13.2c11.3,5.2,19.6,14.7,31.1,19.2
	c0.5,0.3,1,0.7,1.3,1.2C232.3,321.2,232.3,321.7,232,322.1z"/>
<path class="st15" d="M260.3,216.8l-1.1-1.1c0.5-3.2,3.7-4,5.4-6.2c1.6-2,3.5-3.6,5.3-5.4c5.3-4.8,8.6-10.9,11.2-17.4
	c0.6-1.6,0.9-3.6,2.9-4.4c4.2-0.4,5.9,2.4,7.1,5.6c0.8,2.6,2,5,3.4,7.3c5.2,12.6,14.4,22.1,24.2,31.1c10.5,8.5,22.1,9.7,34.7,5.9
	c2.2-0.7,4.4-2.2,7-1.2c0.4,0.3,0.5,0.8,0.2,1.2c0,0,0,0,0,0.1c-10.3,3.7-20.2,7.4-31.8,3.1s-19.2-12-26.4-21.1
	c-6.2-8-11.1-16.8-14.7-26.3c-0.4-1.1-0.8-2-2.1-2.1c-1.5-0.1-1.5,1.3-1.8,2.2c-4.5,10.8-12,19.4-20.6,27.2
	C262.3,216.1,261.3,216.6,260.3,216.8z"/>
<path class="st16" d="M277.5,165.7c-0.4-3.2-2.3-6-5-7.6c-4.5-2.9-5.7-14.2-2.2-18.4c0.6-0.7,1.2-1.4,1.7-2.1
	c4.4-7.4,11-8.9,18.2-4.1c3,2,6.1,3.8,8.1,7c1.9,3,1.5,5.9-0.9,8.2c-8.6,8.5-9.3,13.8-3.6,24.2c3.3,6,5.9,12.4,10.2,17.9
	c0.9,1.2,0.7,2.6,0.9,3.9l-0.2,0.2c-3-0.8-3.9-3.7-5.2-5.9c-4.6-7.8-8.2-16.1-12.2-24.2c-0.9-1.5-1.1-3.2-0.6-4.8
	c1.2-3.3,2.1-6.4,1.2-10c-0.5-1.9,1.3-2.8,3.3-2.6c1.9,0.4,3.8-0.7,4.4-2.5c0.8-1.9-0.6-3.1-1.7-4.3c-1.9-2.2-4.1-4.1-6.5-5.7
	c-4.8-2.9-9.6-1.5-13,2.9c-3.7,4.9-3,9.9-1.9,15.1c0.4,1.7,1.7,3,3.3,3.4c3.3,1.3,4.6,3.7,4.4,7.1c-0.1,0.5-0.2,0.9-0.4,1.3
	C279.2,165.5,278.6,166.2,277.5,165.7z"/>
<path class="st17" d="M30.7,375c-1.8-2.1-3.6-4.3-5.4-6.4c-1.3-1.9-2.6-3.7-4-5.5c-1.3-1.6-2.2-3.6-0.6-5.3c1.8-1.9,3.7-0.6,5.2,0.8
	c2.1,2,4.6,3.4,6.8,5.2c1.6,1.2,3.7,2.7,5.3,1.5s-0.4-3.2-0.8-4.8l0,0c-0.7-1-1.3-2-2-3c-1-1.2-0.8-3,0.4-4l0.1-0.1
	c1-0.9,2.6-0.9,3.5,0.1c0.2,0.2,0.3,0.4,0.4,0.6c1.6,2.5,4.3,3.2,6.6,4.5c0.4,0.2,0.9,0.6,1.2,0.5c5.3-1.5,9.8,1.6,14.7,2.6
	c1.9,0.5,3.8-0.5,4.4-2.3c1.5-3.5,4.4-4.8,8.1-4.4c3,0.3,6-0.7,8.9,0.7c0.1,3.2-2.5,3.1-4.4,3.1c-4.1-0.1-7.2,0.9-9.4,4.6
	c-1.4,2.3-3.9,3.1-6.7,2.4c-3.6-1.6-7.5-2.4-11.4-2.4c-2.9,0.1-5.6-1.1-8.6-2.5c0.4,3.2,3.4,6.1,0.6,8.6c-2.4,2.1-5.4,1.2-8.1,0
	c-2.8-1.5-4.9-4.2-8.3-5.2c-0.2,3.6,2.3,5.4,3.8,7.6c0.7,0.9,0.9,2,0.7,3.1C31.5,375.3,31,375.3,30.7,375z"/>
<path class="st1" d="M360.4,232.2c0-0.4-0.1-0.7-0.1-1.1c1-3.9,5.1-3.9,7.7-5.6c8.4-5.3,16.1-11.7,23-18.9c0.7-0.8,1.5-1.5,2.3-2.2
	c1.2-1.1,2.5-2.5,4.4-1.6s2.1,2.8,1.9,4.7c-1.9,12.8-3,25.8-6,38.4c-1,4.2-1.8,8.6-0.7,12.9c2.9,1.9,2.6-2.2,4.4-2.3l0.6,0.2
	c0,1.7-0.1,3.3-1.5,4.6c-1.2,1.1-2.3,2.1-4,1.6c-1.7-0.4-2.9-2-2.8-3.7c0-5.1-0.4-10.3,1-15.3c3.2-11,3.2-22.6,5.2-33.9
	c0.2-0.9,0.6-2.3-0.7-2.8s-1.9,0.7-2.5,1.5c-5.4,5.8-11.3,11-17.6,15.6C370.5,227.6,365.6,230.3,360.4,232.2z"/>
<path class="st18" d="M83.6,355.9c-2.9,0-5.8,0.1-8.6,0c-3.9-0.1-7,0.9-7.7,5.2c-0.4,2.2-1.8,2.3-3.3,2c-2.1-0.3-4.1-0.9-6.1-1.8
	c-2.3-1.3-5.1-1.7-7.7-1.1c-3.8,0.8-6.5-2.4-9.7-4.1c-1.4-0.8-2.1-3.7-4.3-2.2s0.3,3.1,0.8,4.7c0.1,0.6,0.2,1.2,0.2,1.8
	c-3.2-1.6-4.3-4.5-4.5-7.8c-0.1-2.3,1-3.5,3.4-2.2c1.8,0.8,3.4,2,4.6,3.5c2.5,3.4,5.8,5,10.1,4c2.6-0.5,5.2,0.2,7.2,1.9
	c1,0.8,2.6,1.6,3.7,0.8c1.7-1.4-0.4-2.2-0.9-3.3c-1.6-3.5,1.1-4,3.3-4c4.7,0.1,9.3,0.6,14,0.8c1.7,0,3.9,1,5-1s-0.9-3.2-1.9-4.7
	c-0.6-1.1-1.1-2.2-1.5-3.3l0.1-1c4.3,1.2,5.5,4.9,6.3,8.7C86.5,354.3,86,356.1,83.6,355.9z"/>
<path class="st17" d="M387.6,289.4c-7.9,3-16.2,5.2-22.7,10.9c-10.1,2.7-12.1,12.2-16.4,19.6c-1.7,2.9-0.6,6,2.8,7.5
	c1.6,0.7,3.2,1.6,4.8,2.5c2,1.2,4,1,5.4-0.5c2.4-2.8,5.7-3,8.9-3.6l2.7-1c-6,3.9-11.7,8.8-19.7,6.5c-8.8-2.5-10.9-7.3-7.4-16.1
	c3-7.4,9.1-11.3,15.5-15.5c8-5.1,16.7-8.2,25.2-12c4.4-2,8-5.6,12-8.4c0.9-0.4,1.7-1.2,2.8-0.8c-0.2,1.9-1.5,3.5-3.3,4
	C394,284,390.9,286.8,387.6,289.4z"/>
<path class="st1" d="M428.7,126.5c4.6,1.8,7,5.9,8.7,9.9c1.4,3.2,0.8,7-3,9c-1.5,0.7-2.6,2.2-2.9,3.9c-0.4,3.8-2.4,7.3-5.6,9.5
	c-6,4.4-6.8,11-8.2,17.5c-2.3,10.5-4.1,21.2-8.1,31.3l-0.5-0.5c-1.1-1.9-0.4-3.8,0.2-5.7c2.7-9.2,4.8-18.6,6.9-28
	c0.7-3.4,1.1-6.8,2.6-10c1.6-2.8,4.1-4.8,6.3-7c2.4-2.5,3.3-5,0.7-7.9c-1.2-1.4-1.9-3.2-1.8-5c0-2-0.1-4.1,2-5.2
	c1.9-1,3,0.7,4.2,1.8s2.3,1.6,3.6,0.4c1-1,1.2-2.6,0.4-3.8c-1.2-2.4-3-4.5-4.3-6.9c-0.6-1-1.6-1.9-1.2-3.2L428.7,126.5z"/>
<path class="st19" d="M480.5,235.8v1c-14.9,7.2-29.8,14.4-44.4,22.1c-10.6,5.6-21.8,10.4-31.1,18.2c-0.9,0.6-1.8,1-2.8,1.4
	c1.2-4.2,5.1-6.2,8.3-7.9c10.7-5.5,20.7-12.2,31.6-17.2c8.9-4,17.2-8.9,26-12.9C472,238.7,475.8,235.7,480.5,235.8z"/>
<path class="st20" d="M37.2,360.4c0.6,0.7,1.2,1.3,1.7,2c0.8,1.1,2.9,2.3,1.4,3.7c-1.5,1.4-3.8,1.5-5.3,0.1c-3-2.5-6.7-4-9.4-6.9
	c-1.2-1.2-2.7-2.5-4.2-1c-1.3,1.3-0.2,2.9,0.5,4.1c1.2,2,3.4,3.5,3.5,6.2c-3.3-1.9-4.8-5.3-7.1-8.1c-1.4-1.6-2-4-0.1-5.8
	s3.8-0.4,5.4,0.8c3,2.2,6,4.6,8.9,7C35.4,365.1,36.9,364.3,37.2,360.4z"/>
<path class="st21" d="M30.7,375h1c4.7,1.6,6.5,4.3,5.2,8.5c-0.7,2.3,0.5,3.3,1.7,4.6c1.6,1.7,3.8,2.3,5.6,3.6
	c0.3,0.3,0.5,0.7,0.5,1.1l-0.4,0.5l-2.7-0.1c-4.3-0.8-7.5-3.8-10.9-6.2c-2.4-1.7-4.6-4.5-0.3-7.1C32.7,378.6,30.8,376.7,30.7,375z"
	/>
<path class="st22" d="M534.2,327.6c3.5-0.8,5.5-3.9,8.3-5.8c1.6-1.1,3.5-2.8,5-1.4c1.5,1.4-0.2,3.4-1.3,4.8
	c-2.8,3.5-5.4,7.2-9.2,9.7c-0.5-0.5-0.7-1.2-0.6-1.8c0.2-0.6,0.5-1.2,1-1.7c1.4-1.3,2.9-2.4,3.7-4.8c-3,1.7-5.8,3.7-8.2,6.2
	c-2.9,1.7-4.9,4.8-8.5,5.6c-0.7,0.1-1.3-0.1-1.9-0.5c-0.7-1.1,0.1-1.6,0.9-2L534.2,327.6z"/>
<path class="st23" d="M277.5,165.7l1.7-0.9c1.8,1.6,0.7,3.4,0.3,5c-2.3,9.2-6,18-10.9,26c-1,1.5-1.8,3.1-2.6,4.7
	c-0.2,0.4-0.5,0.8-0.7,1.2c-1.8,1.6-2.9,4.1-5.8,4.2c-0.3-0.2-0.4-0.5-0.3-0.7c0.1-0.2,0.2-0.4,0.2-0.4
	C267.6,193,273.8,179.7,277.5,165.7z"/>
<path class="st24" d="M259.3,204.8v1c0.4,2.2-1.5,3.1-2.6,4.5c-4.1,3.6-9,6.1-13.6,9c-1.9,1.2-4.3,2.1-5.7-0.1
	c-1.4-2.2,0.9-3.4,2.2-4.8c2.4-0.8,3.4-4.5,6.8-3.3c0.9,1.7,1.8,1.7,3.6,0.8C253.7,210.2,256.2,207.1,259.3,204.8z"/>
<path class="st25" d="M363.1,365c0,0.3-0.1,0.5-0.1,0.8c-0.3,0.3-0.7,0.5-1,0.8c-4,3.7-3.8,4.8,1.2,6.5c-1.8,3.1-5.2,3.4-8.1,4.4
	c-1.2,0.4-2.9,0.3-2.6-1.9C352.7,373.3,360.6,365.5,363.1,365z"/>
<path class="st1" d="M409.6,207.7c-0.3,9.3-4.4,17.8-5.6,26.9c-0.4,2.9-1.7,5.7-2.5,8.6l-0.6-0.5c-0.7-1.2-0.9-2.7-0.5-4
	c2.8-9.7,4.3-19.8,7.3-29.5c0.3-0.9,0.7-1.7,1.8-1.7L409.6,207.7z"/>
<path class="st19" d="M520.7,234.8c-3.5,0-6.8-1.2-10.2-1.9c-7.8-1.6-15.2,0.1-22.8,1C498.4,229.9,510.2,230.2,520.7,234.8z"/>
<path class="st26" d="M246.5,211.2c-2.7,0.2-3.5,3.5-6.2,3.8l-0.4-0.6c0.1-1.1,0.7-2.1,1.5-2.8c4.5-2.9,7.5-7.2,10.9-11.1
	c0.9-1,1.5-2.2,3-2.5c0.4,0,0.9,0.1,1.2,0.3c0.6,1.1-0.5,1.5-0.8,2.2C253.6,204.9,249.2,207.3,246.5,211.2z"/>
<path class="st14" d="M62.6,243.1c-0.3,0.5-0.7,1-1,1.4c-1,1.2-2.7,2.3-1.8,4.2c0.8,1.7,2.6,1.7,4.3,1.6c2.5,0,5.1,0,7.6,0
	c-4.2,2.1-8.9,0.1-13.2,1.5c-1.4,0.4-2.1-1.4-1.5-2.9C58.2,246.3,59.3,243.6,62.6,243.1z"/>
<path class="st27" d="M363.2,373.2c-1.7-0.7-4.7,2.4-5.1-1c-0.4-3.1,1.9-5.4,5-6.4c-0.3,0.5-0.6,1-0.9,1.5c-0.7,0.9-2,1.7-1.5,3
	c0.6,1.7,2.2,1,3.5,1.1c0.9,0.1,1.8,0,2.7,0l-2.8,1.7C363.7,373.1,363.4,373.2,363.2,373.2z"/>
<path class="st28" d="M440.5,286.7c1.2-0.5,2-2.2,3.7-1.7c-1.2,4.2-5.6,3.4-8.4,5.1c-1.2,0.8-2.9,0.8-4.3,1.2l-0.1-0.1
	c0.2-2.7,2.5-2.4,4.2-3C437.1,287.6,438.8,287.3,440.5,286.7z"/>
<path class="st6" d="M523.4,335.9l-1,1.7c-1.2,2.8-2.9,4.7-6.2,3.7l-3.8,0.8C516.2,340.2,519,336.7,523.4,335.9z"/>
<path class="st10" d="M445,284.8c2.8-3.5,6.9-4.5,11.1-5.2C453,282.7,448.9,283.5,445,284.8z"/>
<path class="st1" d="M401.4,243.1c-0.1,4.8,0.1,9.8-3.6,13.6l-0.1-0.1c-0.6-0.6-1-1.4-0.8-2c1.9-3.7,0.9-8.5,4.4-11.6L401.4,243.1z"
	/>
<path class="st13" d="M255.8,200.5c0.2-0.7,0.5-1.4,0.7-2.1c-0.2-2.5,0.2-4.6,3.4-4.8l0.4,0.4C258.6,196.1,258.6,199.3,255.8,200.5z
	"/>
<path class="st29" d="M466,428.6l-2.8-1.7c-0.3-0.4-0.2-1,0.2-1.3c1.7-0.9,3.4-1.5,3.1-4.2s1.7-3.9,4.2-3.1c4.1,1.3,8.5,0.6,12-1.9
	c2.7-1.8,6-0.6,8.8,0.5c3,1.1,6.2,1.4,9.3,0.8c4.2-0.7,8.2-2.1,12.5-2.3c2.8-0.1,5.7-0.6,5.9-4.8c0.1-2.3,2.4-2.9,4.5-3
	c2.1-0.1,4,0.1,5.9-0.3c2.2-0.5,5-0.3,3.7-4.3c-0.8-2.5,1.5-3.2,3.6-3.5c2.5-0.4,5.2,0.4,7.6-0.6c4-3.9,9.1-6.4,14.6-7.2
	c1.2-0.3,2.4-0.4,3.5-0.2c0.7,0.1,1.4,0.4,1.9,1c-6.5,1.7-12.5,4-17.2,9.2c-0.7,0.6-1.6,0.8-2.5,0.8c-3.4,0-7.3-0.9-6,5
	c0.3,1.5-1.3,2.2-2.9,2.2c-2,0-3.9,0.1-5.9,0c-3.7-0.1-7.2-0.3-6.7,5.1c0.1,1.3-1.2,2.2-2.4,2.4c-3.4,0.7-6.8,2.9-9.7,3
	c-7.4,0.2-15,2.7-22.3-0.9c-2.3-1.1-4.6-0.9-4.3,2.8c0.2,2-0.8,2.8-2.8,2.3c-1.6-0.2-3.3-0.5-4.8-1c-2.7-1-6-3.2-5.6,2.9
	C471.4,429.6,468,428.3,466,428.6z"/>
<path class="st30" d="M536.9,333.1v1.8c-4,4.8-9.3,8.5-11.8,14.6c-3.3,4.8-2.1,7.9,3.5,8.1c4.7,0.1,8.6,1.4,11.3,5.4
	c1.5,2.2,3.8,2.1,6.1,2c4.9-1.5,10.1-0.5,15.1-1.9c2.9-0.8,3.3,1.8,2.6,4.2c-0.4,1.4-1.7,2.9,0,4c1.5,1,3.1,0.6,4.7-0.2
	c2.7-1.3,5.7-2,7.8-4.3l0,0c1.5-0.7,3.4-2.7,4.7-0.6s-0.3,4.2-2.5,5.4c-2.4-1.2-4.5,0.1-6.3,1.3c-3.8,2.7-8,2.5-12.2,2.2
	c-2.5-0.2-4.2-1.4-3-4.1c1-2.4-0.1-2.9-2.1-3.1c-3.1-0.4-6.2-1-9.4-0.2c-2.9,0.8-5.9-0.1-7.9-2.3c-2.7-3-6.2-4-10-4.7
	c-5.5-1.1-6.9-3-6.8-8.8c3.4-6.7,8-12.8,13.6-17.8C534.8,333.2,535.8,332.8,536.9,333.1z"/>
<path class="st31" d="M577.9,371.3c1.9-1,3.3-2.8,2.3-4.7c-0.9-1.7-2.7,0.4-4.1,0.1c1.9-1.9,4.5-4.6,6.7-2.9s-0.9,4.3-2.1,6.1
	c-2.1,3.2-4.9,6.1-7.4,9.1c-0.7,0.8-1.6,1.4-1.4,2.6c0.9,6,0.2,7.4-5.4,9.8c-0.7,0.3-1.4,0.5-2.2,0.7l-1.9-0.1
	c-0.2-0.4-0.3-0.8-0.2-1.2c0.2-0.4,0.7-0.9,0.5-1.2c-1.9-5.5,2.4-7.9,5.5-10.8C571.5,376.4,574,372.9,577.9,371.3z"/>
<path class="st31" d="M576.2,366.7c-2,3.8-6.5,4-9.5,6.2c-1.4,1-3.8,0.5-5.2-1.4s0-3,1.1-4.2c0.8-0.7,1.1-1.9,0.5-2.9
	c-0.7-1.1-1.7-1.1-2.7-0.6c-4.6,2-9.5,1-14.2,1.1c3.8-3.1,8.5-1.1,12.6-2.4c2.1-0.7,4.5-0.7,6.3-2.3c0.7-0.6,1.6-1,2.4-0.3
	s0.4,1.6-0.1,2.4c-1.5,2.1-3.4,5-1.3,6.9s5.3,0.1,7.8-1.3C574.5,367.5,575.3,367.1,576.2,366.7z"/>
<path class="st32" d="M279.3,163.9c0-3.2-0.4-6-4.5-6.6c-1.2-0.4-2.1-1.1-2.8-2.2c-3.7-5.2-0.6-19,5.1-21.8
	c3.5-1.7,7.1-2.1,10.8,0.4c2.8,2.1,5.4,4.4,7.8,6.9c1.5,1.5,2.8,3.2,1.2,5.1c-1.4,1.7-2.5,4.3-5.8,2.8c-2.6-1.2-3.1,0.8-2.1,2.5
	c1.6,2.8,1.1,5-0.7,7.5c-1.1,1.7-1.1,3.9,0,5.6c5.4,10.3,9.6,21.3,16.6,30.8c0.9,2.8,2.8,4.8,4.7,6.9c1.1,1.1,2.7,2,2.6,4
	c-5.5-1.3-7.4-6.1-10.1-10.2c-6-9.1-10.5-19-15.1-28.9c-1.5-3.2-3.4-3.9-6.2-1.6C279.9,165.1,279.7,164.3,279.3,163.9z"/>
<path class="st33" d="M428.6,126.7c2.1,2.9,4.3,5.8,6.2,8.8c1.5,2.3,2,4.9-0.7,6.8c-2.7,1.9-4.2,0.1-5.5-2c-0.5-0.8-1-1.7-2-1.4
	c-1.3,0.3-1.5,1.3-1.6,2.4c-0.1,2.6-0.2,5,2,7c2.6,2.5,2.4,5.3-0.2,7.9c-2.4,2.3-4.8,4.6-7.1,6.9l-0.5-0.4c-0.8-1.4,1.3-3.4-0.3-4.2
	c-1.8-0.8-3.8,0.2-5.4,1.6c-1.2,1.1-2.2,2.5-3.8,3.2c-0.4,0.1-0.8-0.1-1.1-0.4c0.3-0.8,0.7-1.6,1.2-2.3c3.1-2.9,4.4-5.4-0.4-8.3
	c-3.4-2-1.6-6.4-3-9.6c-2.8-6.5,6.5-18.9,13.6-18.8c2.4,0,4.5,0.5,5.8,2.7c-1.3,1.3-2.9,0.5-4.3,0.4c-5-0.4-11,4.7-11.4,9.6
	c-0.1,1.6,0.7,1.9,1.9,1.4c4.8-2,9.5-3.9,14.1-6.2c3.6-1.8-1.3-3.4-0.3-5.2L428.6,126.7z"/>
<path class="st34" d="M280.2,164.8c3.6-4.6,4.1-4.6,7,0.4c4.3,7.3,6.6,15.5,11.3,22.6c4.1,6.2,6.8,13.5,13.4,17.9
	c11.2,11.7,24.2,17.6,42,11.8c1.4-0.6,2.9-0.7,4.4-0.2c0.4,2.9-2.4,2.8-3.8,4c-5.1,2-10.3,0.7-15.5,1.1c-5.8-0.6-11.6-1.6-16.7-4.7
	c-3.4-2-6.4-4.6-9.8-6.7c-3.6-2.3-6.3-5.5-9.5-8.3c-1.7-1.6-2.7-3.6-3.1-5.9c-0.5-2.8-2.4-5.2-5-6.3c-1.3,2.1,0.7,3.6,0,5.2
	c-0.3,0.3-0.8,0.3-1.1,0.1c-2.3-1.7-2.9-4.3-3.7-6.9c-0.9-3.1-2.4-5.9-6.2-6.1c-0.4-1.2,1.2-1.9,0.7-3.1c-3.1-3.4-4-0.2-4.7,1.9
	c-2.5,6.6-6,12.8-10.5,18.3c-1.1,1.3-2,2.7-3.6,3.3c-0.4,0.1-0.9,0-1.2-0.2c-0.4-0.6-0.3-1.3,0.2-1.8l0,0c3.5-5.1,6.6-10.4,9.3-15.9
	c1.5-2,2.4-4.5,2.6-7c0-1.1,0.4-2.1,1.1-2.9c1-1.3,2.6-2,4.2-2c1.1,0.1,2.5,0.4,3-1.1s-0.5-2.5-1.4-3.5s-1.9-1.4-2.8-2.2
	C280.2,166.1,280,165.4,280.2,164.8z"/>
<path class="st35" d="M317.5,174.8l4.6-5.5c2.3-3.4,3.5-7.7,8.2-9.1c1.1-0.3,1.2-1.7,0.8-2.8c-1.6-3.7-0.6-7.1,0.8-10.5
	c0.2-0.9,0.5-1.8,0.8-2.6c0.6-0.9,1.1-1.9,2.4-1.7c1.3,0.2,1.6,1.3,1.8,2.3c0.3,1.3,0.3,2.7,0.2,4.1c-0.6,10.7,1.4,21,3.6,31.4
	c1.1,5.2,4.1,9.7,5.9,14.7c2.8,2.4,4.2,5.9,6.8,8.4c0.9,0.8,1.6,2.1,0.5,3.2s-2.5,0.4-3.6-0.6c-5-4.6-9.2-10-12.4-16
	c-2.4-4.5-4.7-9.1-4.8-14.4c-0.1-2.7-2.1-3.4-4.2-4c-1.7-1.3,0.7-2.7-0.3-4.3c-2.5,0-3,2.4-4.3,3.8c-1.9,2.1-2.9,5.4-6.8,4.8
	c-0.2-0.2-0.3-0.5-0.2-0.7C317.3,175,317.4,174.8,317.5,174.8z"/>
<path class="st36" d="M358.5,217.6H354c15.3-7.5,27.2-19.1,37.8-32.1c5.9-7.3,11.4-14.8,16.7-22.5h1c0.3,0.3,0.5,0.7,0.5,1.2
	c-0.5,3.9-4.3,5.8-5.5,9.3c-4.8,7.4-11.5,13.6-15.1,21.8c-2.8,4.6-6.4,8.6-10.6,12c-2.6,1.6-4.4,4-6.8,5.8
	C368.2,216.3,363.3,216.7,358.5,217.6z"/>
<path class="st37" d="M332.2,136.6c0.2-3.5-0.8-7.1,2.1-10.3c1.4-1.5-1.2-2.7-2.2-3.8c-2.9-3.4-2.1-6.5,2.1-7.9
	c2.6-0.9,3.9,0.3,4.3,2.5c1.1,5.8,3.2,11.6,0.1,17.4c-1.1,2.1-0.9,4.4-0.9,6.7c-2.6-0.5-1.8-2.6-2-4.2s0.9-3.2-0.6-4.9
	c-1.2,1.9-0.5,3.9-0.8,5.7c-0.2,1.6,0.6,3.7-2,4.3L332.2,136.6z"/>
<path class="st38" d="M332.2,142c1.7-3,0.5-6.2,0.8-9.2c0.1-1.4,0.1-3.2,1.9-3s2.9,1.6,2.4,3.6c-0.6,2.6-1.4,5.2,0.3,7.8
	c-0.7,18.5,2,36.4,9.2,53.5c0.3,0.3,0.3,0.8,0,1.1l0,0c-6.4-10.2-8.8-21.6-10-33.3c-0.5-4.5-0.1-9.1-0.1-13.6c0-1.9,0.5-4.7-1.6-5.2
	s-1.4,2.9-2.9,3.9c-0.6-1.1-0.7-2.5-0.1-3.7L332.2,142z"/>
<path class="st39" d="M346.7,195.8c0-0.4,0-0.8,0.1-1.1l3.4,3c1.1,3.4,4.4,5.2,6.2,8.2c0.8,1.3,2,2.6,0.6,4
	c-1.2,1.1-2.5,0.3-3.7-0.6c-7.2-5.1-12.4-11.8-16.6-19.4c-2.5-4.1-4.1-8.7-4.7-13.5c-0.3-2.9-2.5-3.4-5.1-3.2l-0.5-0.3
	c0.2-1.2,1-1.5,2-1.5c3.6-0.4,5.1,0.6,5.6,4.8c1.4,12,8.1,21.5,16.6,29.7c0.7,0.6,1.6,1.3,2.4,0.7c1.3-1.1-0.1-1.8-0.7-2.5
	C350.6,201.1,348.6,198.4,346.7,195.8z"/>
<path class="st40" d="M332.1,143.9l0.1,3.7c-0.6,3.5-1.7,7,0.6,10.5c0.6,1,0.2,2.3-0.8,2.8c-0.1,0.1-0.2,0.1-0.3,0.2
	c-5.1,0.6-6.4,5.4-9.5,8.2C326,161.1,329.4,152.6,332.1,143.9z"/>
<path class="st41" d="M326.9,173.1c-3.2,5.9-8.2,9.9-13.5,13.6c-1.3,1.1-3.2,1.2-4.7,0.4c-1.5-0.9-0.7-2.1-0.1-3.1
	c3.4-2,5-6.2,9.1-7.4c1.2,2.2-0.7,3.2-1.6,4.7c2.2-1.8,4.2-3.9,6.3-5.9c1.2-1.1,2.1-2.6,4-2.4C326.6,173,326.8,173,326.9,173.1z"/>
<path class="st40" d="M317.5,176.6c-3.4,1.9-4.9,6.1-9,7.3c2.6-3.4,5.6-6.4,8.9-9.1c0.1,0.3,0.2,0.7,0.3,1
	C317.9,176.1,317.8,176.4,317.5,176.6C317.6,176.6,317.5,176.6,317.5,176.6z"/>
<path class="st42" d="M163.8,183.9c5.7,8.1,11.7,15.8,20.3,21c2.7,1.7,5.8,2.7,8.9,3c2.4,0.5,4.8,0.1,7.2,0.2c1.5,0.1,2.7,0.4,3.1,2
	c0.4,1.3-0.1,2.8-1.2,3.6c-2.4,1.9-5.5,2.7-8.5,2.1c-22.6-6-33.7-23-41.5-43.2c-0.1-2.3-1.2-5.4,3.3-4c0.9,0.8,1.4,1.9,1.5,3.1
	C159,175.8,160.7,180.3,163.8,183.9z"/>
<path class="st43" d="M149.1,166.7c-1.8-7.5-6.4-12.9-12.2-17.6c-0.4-0.3-0.7-0.6-0.9-1c-3.8-6.2-0.6-19.1,5.8-22.6
	c2.9-1.5,6.1-1.1,9.2,0.2c0.7,0.5,1.6,1,0.8,2.1c-1.3,0.7-2.6,0.1-4,0.1c-2.3,0-4.6,0.3-6.3,1.9c-1.4,1.4-3.8,3.2-2.3,5.2
	c1.2,1.6,3.4-0.2,4.8-1c3-1.9,6.6-2.9,9-5.8c2.9,2.2,3.1,3.5,0.6,5.3c-1.3,1-3,1.5-4.3,2.6c-1,0.8-1.9,1.7-1,3
	c3.9,5.8,4.4,12.2,3.1,18.9c-1.8,1.6-2.1-0.8-3.2-1.3C148.7,160,151.6,163.1,149.1,166.7z"/>
<path class="st44" d="M152.8,173c5.1,12.8,12.2,24.3,23,33.1c4.9,4,11.1,6.4,17.1,8.7c3,0.8,6,1.4,8.9,2.4c2.7,0.8,5.6,0.5,8.2,1.7
	c0.3,0.3,0.5,0.7,0.5,1.2c-1.2,1.6-2.9,1.3-4.5,1.3c-1.8-0.1-3.5,0.5-4.9,1.7c-8.8-1.8-16.9-5.8-23.6-11.7
	c-11.5-9.8-19.6-22.1-25.2-36.1c-0.2-0.7-0.3-1.5-0.4-2.2C152.1,172.8,152.5,172.8,152.8,173C152.7,173,152.7,173,152.8,173z"/>
<path class="st45" d="M264.9,203.2c6-6,10.6-13.2,13.6-21.2c0.4-1.3,0.9-2.5,1.6-3.7s2.1-1.9,3.5-1.5c2,0.4,2,2,2.1,3.5
	c-2,1.4-3.4,3.3-4.2,5.6c-2.6,7-6.4,13.4-11.3,19c-3.2,4.1-7.3,7.4-11.1,10.8c-0.2,0-0.5,0.1-0.7,0.1c-2.2,1-3.9,2.8-6.1,3.8
	c-1.2,0.6-2.4,0.8-3.2-0.5c-0.5-1-0.2-2.2,0.8-2.7c0,0,0.1,0,0.1-0.1C255.8,212.9,259.5,207.1,264.9,203.2z"/>
<path class="st46" d="M201,223.1c-0.8-2,0.1-2.8,2-2.8c2.4,0,4.7,0,7.1,0c0.9-0.8,2.2-1.1,3.3-0.6c3.6,3.7,7.5,1,11.3,0.5
	c2.5-0.4,4.7-1.7,7.2-2.3c0.6-0.1,1.3,0,1.9,0.3c1.1,2.1-1.7,2.3-1.9,3.9c2.4,0.6,4.1-2.5,6.6-1.1c1.5,3.3,3.9,1.6,6.1,1.2
	c1.9-0.4,3.5-2.6,5.8-0.9c-6.1,4.4-13.3,6-20.6,7.1c-1.1,0.2-2.2-0.1-2.9-0.9c-3.5-4.8-8.4-3.4-13.2-3.1
	C209.5,224.5,205.2,224.5,201,223.1z"/>
<path class="st47" d="M151.8,127.6c-0.3-0.6-0.6-1.2-0.9-1.8c2.4,0.4,4.4,2.2,5.2,4.5c0.6,1.8,1.5,3.5,2.9,4.9
	c1.4,1.3,1.6,3.5,0.5,5c-1.2,1.7-2.6,0.8-3.9-0.1c-0.8-0.8-2-0.8-2.8,0c-0.1,0.1-0.2,0.3-0.3,0.4c-0.9,1.1-0.8,2.8,0.3,3.7
	c3.8,3,2.8,5.7,0,8.6c-1.5,1.6-0.6,3.8-0.8,5.7l-0.5,0.3l-0.5-0.3c0.8-5.5-0.4-10.8-1.9-16.1c-0.1-0.4-0.4-0.8-0.5-1.2
	c-0.6-1.5-3.8-1.8-2.6-3.7c1.3-2,3.4-3.6,5.7-4.3c2.9-1,4.7-2.2,1.2-4.7C152,128.6,151.7,128.3,151.8,127.6z"/>
<path class="st48" d="M250.3,221.4c-3.5,0.4-6.4,2.9-10.1,3.1c-3,0.1-3-1.1-1.9-3.1c6.7-3.2,12.9-7.2,18.7-11.9
	c2.6-2.1,4.1-5.4,7.5-6.5l0.3,0.4c-3.9,6.3-10,10.5-16,15.3c4.5,1.8,6-3.6,9.5-2.8C256.4,218.5,253.6,220.4,250.3,221.4z"/>
<path class="st49" d="M152.8,173h-1l-2.7-6.4c0.1-3.2-0.3-6.2-2-8.9c-0.7-1.1-2.3-2.1-0.5-3.3c1.8-1.2,2.2,0.7,2.9,1.8
	c0.5,0.7,1,1.4,1.5,2.1l0,0c1.2,3.8,4,6.9,4.6,10.9C150.9,167.8,153.5,171.7,152.8,173z"/>
<path class="st50" d="M201,218.5l-8.2-3.6c2.8,0.1,5.5,0,8-1.4c1.2-0.6,2.3-1.7,1.8-3.3c-0.4-1.4-1.7-1.5-2.9-1.6
	c-2.2-0.2-4.5,0.6-6.6-0.7l9-0.2c1.7,0,3.3-0.3,4.4-1.8h1.9c1.6,3.9-1.1,6.2-3.2,8.6C203.8,215.8,202,216.8,201,218.5z"/>
<path class="st49" d="M163.8,183.9c-3.9-3.1-5.6-7.5-7.3-11.9c0.3-0.4,0.6-0.4,0.9,0C160,175.7,161.8,179.8,163.8,183.9z"/>
<path class="st43" d="M157.4,172h-0.9l-0.9-2.7c-1.4-3.7-4.1-6.8-4.6-10.9h0.9C152.9,163.3,157.1,166.9,157.4,172z"/>
<path class="st8" d="M232,322.1c0-0.3,0-0.5,0-0.8c0.5-0.5,1.2-0.7,1.9-0.7c4.3,3.7,10.8,2.5,15.1,6.6c1.7,1.6,4.5-0.4,4.3-3.3
	c-0.4-4.8-0.3-9.7-1.4-14.4c-0.3-1.7-1.6-3-3.2-3.5c-3.5-1.2-6.3-3.5-9.1-5.9c-3.4-2.9-7.8-3.9-11.8-5.6c-2.4-0.9-4.7-2.1-6.9-3.4
	c-3.3-3-7.1-5.6-11.1-7.5c-2-1-4.5-2-4.2-5.1c5,3,10.8,4.6,15,8.9c1.3,1.3,2.8,2.3,4.6,2.7c9.1,2.1,17.2,6.8,24.5,12
	c5.5,3.9,11.4,8.3,13.4,15.7c1.1,4,1.4,7.7-2.4,10.6c-4.2,3.1-10.9,3.8-14.4,1.2c-0.5-0.4-1-1-1.5-1
	C239.6,328.4,236.2,324.7,232,322.1z"/>
<path class="st51" d="M205.6,278.5c1.4,2.5,3.7,3.8,6.2,4.9c3.5,1.7,7,3.5,9.4,6.7c0.2,0.2,0.3,0.5,0.3,0.8s-0.1,0.4-0.1,0.4
	c-0.4,0.3-0.8,0.4-1.2,0.4c-0.6-0.1-1.2-0.5-1.7-0.9c-2.7-3.2-6.8-4.1-10.2-6.2c-2-1.4-3.5-3.4-5.6-4.6c-1.8-1.7-3.7-3.2-5.8-4.4
	c-6.2-3.4-12.5-6.6-18.3-10.5c-0.4-0.2-0.7-0.4-1.1-0.6c-6.2-1.7-11.1-6-17-8.5c-8.1-3.3-15.7-7.7-23.5-11.5
	c-1.1-0.5-2.1-1.3-2.6-2.4c0.3-1.2,1.1-1.4,2.1-0.8c6.1,2.2,11.7,5.6,17.5,8.4c6.9,3.4,13.8,6.7,20.5,10.3
	c8.6,4.6,17.1,9.4,25.6,14.1C202.1,275.2,203.4,277.4,205.6,278.5L205.6,278.5z"/>
<path class="st52" d="M110.9,255.8c-10.2-2.4-20-7.2-30.9-6.4c-3.4-1.6-6.7-0.6-10.2-0.2c-2.6,0.2-6.5,1.9-7.7-1.5s3.1-3.9,5.1-5.4
	c1.8-1.5,4.1-2.2,6.4-1.9c0.2,0.4,0.2,0.9-0.1,1.3c-1.4,1.6-4,1.6-5.3,4.6c5.1-0.7,9.8,0.1,14.4,0.1c10.2-0.1,19.1,4.5,28.5,7.1
	c1.1,0.2,1.9,1.2,1.7,2.3C112.3,256.3,111.4,256.3,110.9,255.8z"/>
<path class="st53" d="M73.5,241.2c0-0.3,0.1-0.6,0.1-0.8l0,0c4.7-0.6,9.1-2.4,13.6-3.7c13.5-3.6,26.9-4,40.3,0.2
	c3.2,1,6.2,2.5,8.9,4.3l-1.9,0.9c-4.2,1-7.1-2.9-11.1-2.8c-2-0.7-4.3-0.4-6.1-1.6c-6.9-2.5-13.9-1.1-20.9-0.1
	c-4.4,0.7-8.7,2-12.8,3.8c-2.1,0.9-4.3,1.3-6.6,1.1C75.8,242.4,74.4,242.3,73.5,241.2z"/>
<path class="st52" d="M87.2,236.7c-4.3,2.2-8.7,3.9-13.6,3.7C78.2,239.2,82.4,237,87.2,236.7z"/>
<path class="st8" d="M205.6,278.5c-2.7-0.5-3.9-2.7-5.5-4.5C202.9,274.4,204.2,276.6,205.6,278.5z"/>
<path class="st54" d="M156.4,428.7c-1.8,0.9-3.9,1.7-5.4,0.2c-2.3-2.3-4.3-1.2-6.4-0.2c-0.5,0.5-1.2,0.5-1.8,0.2
	c-0.3-2.4,2.1-2.5,3.2-3.6c1.1-0.8,2.3-1.4,3.5-1.8c5.5,1.8,9.1-1.1,13.3-4.2c6.3-4.8,13.9-7.6,20.7-11.6c5.2-3,11.1-4,16.2-6.6
	c5.7-2.9,11.1-7.2,14.1-13.4c1.1-2.4,2.1-3.5,4.7-2.9c1,0.4,2,0.6,3.1,0.6c2.9-0.2,6.4-0.2,7.9-2.5c1.4-2-1.9-3.7-3.1-5.5
	c-3.1-4.5-3-5,2.4-6.3c1-0.3,1.9-0.8,2.7-1.5c3.6-2.8,5.5-2.7,9.7,0.1c0.1,0.4,0,0.9-0.4,1.1c-4.4-0.5-5.9,3.7-8.9,5.6
	c-1.1,0.7,0.4,1.8,1.1,2.5c2,2,5.2,3.5,3.8,7s-4.8,3.4-7.7,3.8s-5.9-0.1-5.7,4.4c0.1,1.9-1.9,2.3-3.5,2.9c-4.3,1.6-9,2.7-10.5,8.2
	c-0.5,2-2.7,2.7-4.9,2.5c-1.2-0.1-2.8-0.7-3.5,0.3c-3.8,6.2-10.2,1.9-15.1,3.7c-2.1,0.8-3.8,0.8-4.5,3.2c-0.5,1.8-1.3,3.4-2.3,4.9
	c-1.3,1.8-3.1,2.8-5.1,1.5c-2.6-1.8-4.4-0.8-6.3,1C164.5,425.2,159.7,425.7,156.4,428.7z"/>
<path class="st54" d="M241.1,371.3c0-0.3,0-0.5-0.1-0.8l0.1-0.2c0.8-1,2.3-0.7,3.4-1.8c-1.3-2.3-3.6-3.4-5.7-4.7
	c-1.5-1-4.1-0.7-4.2-3.4l2.6,0.1c4.2,1.5,7.5,4.6,11,7.2c1.4,3,0.7,4.7-2.9,4.2C243.9,371.7,242.4,372.2,241.1,371.3L241.1,371.3z"
	/>
<path class="st55" d="M241.1,371.3c1.3,0,2.7-0.1,4,0.1c2.9,0.3,3.6-1.2,3.3-3.7c0.4,0.2,0.9,0.4,1.1,0.8c0.7,1.7,3.5,3.1,2,5
	s-3.7,0.5-5.3-0.5S242.4,372.9,241.1,371.3z"/>
<path class="st56" d="M467.7,269.3l-5.3,3.8c-5.6,2.5-11.8,3.9-16.7,7.9c-0.5,0.4,0.2,0.1-0.4,0.2c-6.8,1.8-13.4,4.1-19,8.6
	c-0.4-0.2-0.6-0.6-0.7-1c0.1-0.7,0.5-1.4,1-2c2.1-2.6,1-3.8-1.8-4.1c-2.3-0.2-4.6-1-7,0.4c-6.9,4.2-9.1,3-9.6-5.1
	c0.7-1.3,1.7-2.4,3.2-2.1c2.1,0.5,3.7-0.4,5.4-1.4c2.4-1.4,4.6-0.8,6.3,1.5c0.8,1,1.6,1.9,3,1.4s2-1.7,2.2-3.1
	c0.1-0.6,0.1-1.2,0.1-1.8c0.3-7.3,0.4-7.1,7-9.7c4.2-1.7,8.1-4.1,11.4-7.1c6.5-3.1,13-6.3,19.6-9.2c3.8-1.6,7.1-4.1,11-5.7
	c9.8-4.1,19.8-5,30.4-4.6c10.2,0.3,19.1,5.6,29.1,6c2.9,2.4,1.2,3.6-1.3,3.9s-5.5,0.6-8.1-0.1c-7.4-2-13.3,2.2-19.8,4.2
	c-2.7,1-5,2.9-8,3c-3.2,0.7-6.3,1.9-9.1,3.6l0,0c-3.2,3.1-7,5.5-11.2,7c-1.1,0.4-2.1,1.2-3.3,0.3c-0.4-3,2.2-3.4,3.9-4.1
	c3.8-1.6,7.1-3.3,7.1-8.2c-0.1-1.6,1.1-2.9,2.6-3c0.6,0,1.1,0.1,1.6,0.4c7.3,4,12.8-0.2,18.3-3.8c2.3-1.6,4.5-3.3,6.6-5.2
	c-6.2,0-12.4-1.2-18.6-1.2c-8,0-15.3,3.1-22.6,5.9c-3.5,1.4-3.6,6-7.2,8.6c3.2,0.8,4.6-1,6.3-1.5s3.3-0.8,4.5,0.9s0.1,2.9-0.8,4.1
	c-0.9,1.1-1.8,2.1-2.8,3c-1.9,1.8-1.4,3,0.8,4c0.9,1.6-0.5,1.8-1.3,2.1C472.2,266.8,470.1,268.4,467.7,269.3z"/>
<path class="st57" d="M446.8,255.8c-3.3,4.3-8.1,7.2-13.4,8.2c-2.7,0.5-3.9,1.9-3.9,4.6c0,2.3-0.1,4.5,0,6.8
	c0.1,2.5-1.7,3.4-3.6,3.9c-1.4,0.6-3-0.1-3.5-1.5c-0.1-0.2-0.2-0.5-0.2-0.7c-0.3-1.1-1.1-2.3-2.1-2c-3.8,1.3-7.7,2.2-11.5,3.4
	c-3.3,3.2-5.1,7.4-7.8,11c-1.7,2.3-3.8,4.1-6.9,2.7c-2.9-1.2-4.5,2.4-7.2,1.6c-0.5-0.5-0.5-1.3,0-1.8c0.4-0.5,0.7-1.1,1.1-1.6
	c5.3-3.3,11.5-5,15.8-10c5.4-6.1,13.5-8.4,20.2-12.6C431.2,263.4,439.2,259.8,446.8,255.8z"/>
<path class="st58" d="M507.7,250.2c6.2-2.8,11.7-8.2,19.6-4.9c2.2,0.9,5.1,0.4,7.6,0.4s3.4-1.1,2-3.4c1.2,0,2.4,0.4,3.3,1.2
	c0.9,0.4,1.3,1.4,1,2.3c-0.3,0.9-1.1,0.9-1.9,1c-0.5,0-0.9,0-1.4,0C527.8,246,517.5,247.2,507.7,250.2z"/>
<path class="st58" d="M476,264c4-1.2,7.9-2.6,11.2-5.3c1-0.9,1.8-2.1,3.4-2l-2.7,3.7l-4.6,2.7c-3.9,1.7-7.9,3.4-11.8,5.2
	c-1.2,0.6-2.3,1.4-3.7,1.1C469.7,266.4,473.7,266.5,476,264L476,264z"/>
<path class="st58" d="M490.6,256.7c2.3-2.5,5.7-3.8,9.1-3.6C496.8,254.7,493.7,255.9,490.6,256.7z"/>
<path class="st59" d="M83.6,355.9c2.4-1.4,1.8-3.4,1-5.4c-1.1-2.5-2.9-4.4-4.6-6.4c-4.8-6.1-11.2-10.8-15.6-17.3
	c-0.6-1.3-1.8-2.6-0.1-3.9c1.9-1.4,3.2,0.1,4.6,1.1c7.3,6.3,15.4,11.6,23.4,17c8.5,5.6,17.7,10.3,26.6,15.3c8.6,4.9,18,8.4,28.4,8.8
	c10.7,0.5,21.5-0.5,31.9-2.9c0.3,0.4,0.3,0.9,0,1.3c-4.5,2.8-9.7,4.3-15,4.4c-6.7,0.2-13.3,0.2-20,0c-7.3-0.1-14-3.2-20.2-6.3
	c-16.9-8.1-33.1-17.8-48.3-28.9c-1.2-1.1-2.6-2-4.2-2.5c4.6,7.2,11.8,11.8,15.5,19.1c0.2,0.5,0.3,0.9,0.4,1.4c0.1,6.5-1.3,8.1-7.9,9
	c-3.2,0.5-5.9,1.4-8,4.3c-2.5,3.5-5.1,3.6-8.9,1.3l0.2-0.7c3,0.6,5.5-0.3,6.9-3c1.8-3.5,4.5-4.5,8.2-4.2
	C79.9,357.8,82.1,357.8,83.6,355.9z"/>
<path class="st54" d="M185.5,360.4c2.3-2.3,5.4-2.3,8.4-2.7c6.5-0.9,13-2,19.6-2.4c5-0.3,10.1-0.1,14.7,2.5c-1,0.9-2.5,1.2-3.8,0.8
	c-8.7-1.4-17.3-0.5-25.8,0.8c-2.8,0.3-5.6,0.8-8.4,1.5C188.6,361.3,186.9,361.8,185.5,360.4z"/>
<path class="st60" d="M68.9,324.1c-2.5-0.7-5.6-2.5-4.6,2.7c-1.2-1.5-2.5-2.9-3.7-4.4c-0.8-1-1.2-2.2-0.3-3.2s2-0.4,2.8,0.2
	C65.2,320.8,67.8,321.6,68.9,324.1z"/>
<path class="st61" d="M198.2,358.4c9.9-2.1,20.1-2.3,30-0.6c0.1,0.2,0.2,0.4,0.3,0.6L228,359c-2.5,1.5-5,0-7.5,0
	c-5.2-0.3-10.5-0.1-15.7,0.7c-1.8,0.3-3.6,0.2-5.4-0.3C198.9,359.3,198.4,358.9,198.2,358.4z"/>
<path class="st61" d="M185.5,360.4c4.3,0,8.3-2.3,12.6-2l0.2,0.3c-3.9,3.6-9,3.3-13.6,4.7c-1.8,0.5-3.8,1.4-5.6-0.3v-1L185.5,360.4z
	"/>
<path class="st61" d="M234.7,360.5c1.2,1.6,3.3,1.4,4.7,2.5l-0.4,0.5c-0.8,0.5-1.7,0.6-2.6,0.4c-2.3-0.5-4.5-1.4-6.5-2.7
	c-0.8-0.7-1.8-1.2-1.9-2.4l0.3-0.4C230.7,358.5,232.9,359.2,234.7,360.5z"/>
<path class="st10" d="M440.5,286.7c-2.6,2.4-6.9,1.4-9.1,4.5h-1.9C432.2,287.3,436.4,287.2,440.5,286.7z"/>
<path class="st62" d="M386.7,292.1c0,0.6,0,1.3,0,1.9l-0.1,0.6c-0.4,0.8-0.9,1.5-1.4,2.1c-1.7,2.6-3.8,4.7-7.1,5.2
	c-0.3,0.1-0.6,0.2-0.8,0.4c-4.2,1.9-6.2,4.6-5.5,7.4s3.8,4.3,8.2,3.9c1.3-0.1,2.7-0.7,3.9,0.4c0.2,0.4,0.2,0.9,0,1.2
	c-4.2,1.7-8.5,3.2-11.7,6.7c-0.8,0.9-2.1,1.3-3.4,1c-2.7-0.8-5.6,0.1-7.3,2.4c-0.8,1-2.2,1.3-3.3,0.8c-1.3-0.5-2.1-1.9-2-3.3
	c0.2-4.2,1.4-8.3,1.6-12.5c0.1-1.7,1.7-2.5,3.3-2.7c2.7-0.2,4.3-1.8,5.8-3.9c2-2.7,4.9-4.6,8.2-5.3c3-0.6,5.7-2.2,7.7-4.5
	c0.6-0.7,1.3-1.3,2.1-1.7L386.7,292.1z"/>
<path class="st63" d="M384,294c-1.7,2.9-4.6,4.9-7.9,5.4c-4.2,0.9-7.7,2.8-9.4,7c-0.9,2.3-2.6,2.2-4.4,2.1c-2.7-0.1-3.9,1.1-3.8,3.8
	c0.2,3.1-0.7,6-1.4,8.9c-0.6,1.5,0,3.1,1.3,4c1.6,1.2,2.5-0.3,3.4-1.2c2-2.3,4.1-3.5,7.1-2.1c1.3,0.6,2.3-0.1,3.2-1
	c3.2-3.3,7.4-5.3,11.9-6c0.5-0.5,1.3-0.5,1.8-0.1c0,0,0,0,0.1,0.1c-5.2,2.7-10.6,4.8-15,8.8c-0.7,0.8-1.9,1.1-3,0.8
	c-2.9-1.3-4.5,0.5-6.2,2.3c-0.9,1-2,2.1-3.5,1.4c-1.4-0.6-2.4-2-2.4-3.6c-0.3-5.3,1-10.5,1.4-15.8c0.1-1.5,1.3-3.5,2.6-3.4
	c4.7,0.1,6.5-4,9.7-6C374.3,297.6,378.6,294.5,384,294z"/>
<path class="st58" d="M385.9,315H384c0-0.3,0-0.6,0-0.9s0.2-0.4,0.3-0.5c1.9-2.1,4.4-3.6,6.4-5.7c1.9-1.6,4.2-2.8,5.9-4.6
	c4.4-2.1,8.1-5.2,12.3-7.6c4.9-2.8,10.6-4.2,15.8-6.6c0.4,0,0.9,0.1,1.2,0.4c1.7,0,2.6-1.3,3.7-2.4c2.9-2.9,6-5.4,10.6-5
	c2.1,0.1,4.2-0.7,5.8-2.2c4.7-4.2,10.5-5.5,16.4-6.7c-7.3,4.6-15.2,8-23,11.3c-12,5.2-23.3,11.7-34.9,17.6
	C397.6,305.6,392,310.6,385.9,315z"/>
<path class="st64" d="M370.4,325.9c-3.3,1.4-6.7,2.4-9.6,4.6c-2.1,1.6-9.9-0.9-12.4-3.5c-2.8-2.9-2-6.2-0.3-9.2
	c2.3-4.1,4.8-8,7.4-11.9c2.1-3.2,5.6-5.2,9.4-5.5c-0.1,0.1-0.1,0.4-0.2,0.4c-10.8,3.6-10.5,13-11.6,21.7c-0.5,2.8,0.9,5.5,3.4,6.9
	c2.8,1.7,4.6,0,6.3-1.8C364.9,325.1,367.8,326.1,370.4,325.9z"/>
<path class="st4" d="M384,294c-4.9,1.7-9.4,4.5-14.6,5.4c4.6-3.7,10.1-5.3,15.6-7.2L384,294z"/>
<path class="st65" d="M426.8,409.5c-6.5-2.8-12.6-6.3-20-6.6c-1.6-0.2-2.9-1.4-3.2-2.9c-0.8-3.6-3.2-5.1-6.4-6.2
	c-2.3-0.8-4.2-2.2-4.2-5.2c0-2.4-1.6-3-3.8-2.2c-4.1,1.5-7.7-0.8-11.4-1.7c-1.7-0.4-2-2-0.5-3.5c1.8-1.6,3.4-3.4,4.7-5.5
	c0.9-1.7,0.9-3.2-1.2-3c-3.3,0.3-4.1-1.7-4.9-4.1c4.2-0.5,9,1.7,10.6,4.9c-0.3,1.7-1.8,2.7-2.6,4c-0.7,1.4-2.8,2.5-1.5,4.3
	c1,1.5,3,0.9,4.7,0.9s3-0.5,4.5-0.6c3-0.2,5.1,0.9,5.5,4c0.3,2.1,1.1,3.4,3.2,3.9c2.7,0.6,4.9,2.7,5.5,5.5c0.8,2.4,2.3,3.8,5,3.8
	c5.1-0.1,9.1,2.8,13.2,5.3c1,0.6,1.8,1.6,3,2c9.1,2.8,17,7.8,25.1,12.6c2.8,1.7,6.4,1.7,9,4c0.4,0.3,0.6,0.7,0.8,1.1
	c0,0.5-0.3,0.9-0.7,1c-6.9,3.1-11.4-1.1-16.5-4.9c-4-3-8-6.2-13.1-7.5C429.3,412.6,428.3,410.8,426.8,409.5z"/>
<path class="st66" d="M385.8,374.1c-2-4.4-6.8-3.3-10-5.4c-3.3-0.2-6.6,0.1-9.7,1c-1,0.2-2.2,0.8-2.7-0.6c-0.4-1,0.5-1.6,1.3-2.1
	c1.9-1.2,3.5-2.8,4.8-4.6c6-1.9,11.6-5,18.1-5.6c10.9-1,21.8,0.1,32.3,3.1c15.1,4.1,30.2,7.3,46,6c0.3,0.4,0.2,1.1-0.2,1.4l0,0
	c-6.4,2-13,2-19.6,1.4c-10.1-0.9-19.6-4.6-29.4-6.7c-2.6-0.6-5.3-1.3-8-1.1c-12-1.6-23.9-2.2-35.2,3.4c-1.1,0.2-2.2,0.8-3,1.6
	c5.4-0.6,9.2,1.6,13.3,3.1C388,371.2,388.2,371.6,385.8,374.1z"/>
<path class="st67" d="M426.8,409.5c8.1,3.6,16.3,7.1,22.4,13.8c3.7,4,8.1,1.3,12.2,1.7c1-0.6,1.8-0.6,1.8,0.9c0,0.3,0,0.7-0.1,1
	c-2.2-0.9-4.3-1.4-6.1,1c-0.6,0.9-1.9,1-2.7,0.4c-0.1,0-0.1-0.1-0.1-0.1c-4-3.2-9.2-4.3-12.9-8.1c-2.1-2.1-4.3-3.3-7.5-0.9
	c-2.6,2-3.9-1.1-4.1-2.8c-0.2-2.6-1.8-4-3-5.9C426.8,410.2,426.8,409.8,426.8,409.5z"/>
<path class="st27" d="M377.7,378.6c-1.8,0.4-4.4-1.1-5.2,1.3c-1,3-1,6.2,1.5,8.7c-3.7-1.8-5.8-8.4-3.6-12.7c1.9-3.6,1.3-5-2.8-4.7
	c2.7-1.2,5.2-2.2,6.9,1.5c0.5,1,2.1,1.5,3.3,2.2C379.9,376.3,379.7,377.5,377.7,378.6z"/>
<path class="st68" d="M341.2,105.1c-0.3,2.4-2.4,3.3-4.3,4.1c-2.1,0.9-4.1,3-6.7,1.3c-0.7-0.5-1.5-1.1-1.4-2.2
	c0.1-1.1,8.9-6.4,10-6.2C340.3,102.3,341.4,103.6,341.2,105.1C341.2,105,341.2,105,341.2,105.1z"/>
<path class="st69" d="M226.5,100.2c2.4,0.2,3.8,2,4.8,3.7c1.3,2.2,1.4,4.3-2.3,4.5c-4.8,0.3-4.8,1.6-3.6,5.9
	c2.2,7.6,6.9,14.2,7.4,22.3c-1.8,0.3-1.7-1.8-2.9-2.4c-1.2,2.2,0.2,4.9-1.4,7c-0.3,0.3-0.8,0.2-1.1-0.1c0-1.5,0.1-3-0.1-4.5
	c-0.3-2.9-1.6-5-4.9-4.5c-3.6,0.5-6-0.8-7.8-4c-0.6-1.1-1.9-1.9-2.9-2.8c-0.5-0.4-1.1-0.6-1.5-1c-4.6-4.9,0.2-23.8,6.7-25.6
	c2.7-0.8,5.7-0.2,8.6-0.2L226.5,100.2c-1.5,1.5-3.4,1.2-5.2,1.1c-4.5-0.4-6.5,2.7-8.2,6.6c-0.8,1.7-0.2,2.6,1.9,2.2
	c4.4-0.8,7.9-3.6,12-5.2C229.2,104.1,225.4,102,226.5,100.2z"/>
<path class="st70" d="M201,218.5c-1-1.9,0.4-2.7,1.7-3.5c3.3-2,5.4-5.4,5.7-9.2c5.6-4.7,9.4-10.8,12.6-17.3c1.3,2,3.3,3.4,5.7,3.8
	c4.5,0.9,5.5,3.7,2.9,7.5c-1.7,2.5-4.2,4.3-6.2,6.6c-3.2,3.7-7.8,6.2-9.4,11.3c-0.3,1.4-1.8,2.3-3.2,2c-0.3-0.1-0.5-0.2-0.7-0.3
	C207,219.7,204,219,201,218.5z"/>
<path class="st50" d="M210.2,219.4c1.3-0.1,2.7-0.6,2.9-1.8c1.4-6.3,7.2-8.9,10.8-13.3c1.3-1.6,3-2.9,4.4-4.6c1.2-1.4,2.5-3,1.6-4.9
	c-0.8-1.6-2.8-1.9-4.3-1.8c-3.6,0.3-5-1.2-4.5-4.6c5.2-15.4,6.9-31.2,6.4-47.4h0.9c2.5,4.2,0.7,8.8,1.3,13.2
	c-0.1,7.9-1.7,15.6-2.8,23.4c-0.2,1.3-0.4,2.7-0.7,4c-1,5.9-1,5.9,4.5,8.8c3.9,2,4,4.2,0.5,9.7c-1.1,1.4-2,2.9-3.1,4.2
	c-2.6,2.7-5.3,5.2-6.4,9.1c-0.8,3-4.4,3.9-6.1,6.4c-0.5,0.4-1,0.8-1.7,0.4h-3.8C210.2,220,210.2,219.7,210.2,219.4z"/>
<path class="st30" d="M466,366.8c0-0.3,0-0.7,0-1c7.7-2.1,15.5-4,22.4-8c9.3-5.4,19.3-9.7,27.8-16.4c2.6-0.4,4.2-2.4,6.2-3.7
	l1.9,0.1c0.4,1.8-0.8,2.9-2.1,3.7c-5.9,3.4-11.3,7.5-17.6,10.3c-3.4,1.7-6.7,3.6-9.8,5.7c-7.2,4.7-15.3,7.2-23.3,10
	C469.7,368.1,467.7,368.4,466,366.8z"/>
<path class="st71" d="M228.4,154.8c0-4.6,0-9.1,0-13.7c0-2.2,0-4.5,0-6.7c0-1,0-2.4,1.2-2.6s1.5,1.2,2,2.1s0.9,1.8,1.4,2.8
	c4.1,15.9,10,30.9,20.7,43.6c0.9,1,2,1.9,3.1,2.6c3.9,2.8,5.7,6.1,3.2,10.8c-2,1-2.2,3.2-3.3,4.8c-0.3,0-0.6,0-0.9-0.1
	c-0.5-0.5-0.8-1.1-0.8-1.8c0.1-1.6,0.7-3.1,1.9-4.1c2.9-3.7,2.8-4.1-2.2-7.1c-3.1-2.2-6-4.7-8.7-7.4c-5.4-5-6.3-12.5-10.2-18.3
	c-0.5-1.7-1.5-3.2-1.8-5c-0.5-3.3-0.1-6.8-2.5-10c-1.3,2.3-0.6,4.4-0.9,6.4C230.2,152.5,230.8,154.5,228.4,154.8z"/>
<path class="st72" d="M110.9,255.8l1.9-0.1c2.2-1.3,4.4-0.1,5.9,1.1c5.9,4.9,13.1,7.4,19.7,10.9c4,2.1,7.8,4.6,11.9,6.5
	c8.9,4.3,17.2,9.6,27,11.8c10,6.6,21.5,10.6,31.4,17.2c4.3,3.3,9,6.2,12.8,10.1c1.8,1.8,4.2,2.3,6.4,3.2c2.4,1,5.4,1.4,6,4.7H232
	c-7.3-2.4-12.9-7.4-19.1-11.8c-7.6-5.4-16.1-9.4-24.2-13.9c-11.5-6.3-24.2-10.2-35.5-16.8c-11.3-6.6-23.9-11-34.4-19
	C116.4,258,113.2,258,110.9,255.8z"/>
<path class="st73" d="M392.2,260.4c-2.6-4.3-1.2-8.9-0.2-13.1c3.2-13.4,4.2-27,6.5-40.5c0.2-1.2,0.2-2.5-1-3.2
	c-1.5-0.8-2.2,0.5-3,1.3c-5.8,6.1-12.1,11.8-18.8,17c-4.8,3.6-10.3,6.1-15.4,9.2c-6.1,2.4-12.4,4.3-18.9,4.4
	c-8.9,0.1-17.3-2.2-23.9-8.9c2.3-1.4,4.1,0.2,5.8,1.2c6.3,3.8,13.1,3.6,20.1,3.3c3.2-0.7,6.5,0.2,9.7-0.7
	c9.7-3.5,18.7-8.6,26.6-15.1c5.2-3.8,9.8-8.4,13.5-13.7c0.4-0.6,0.9-1.1,1.5-1.5c0.9-0.5,1.9-0.8,2.9-0.8c3.1,0.3,3.8,2.5,3.9,5.2
	c0.2,4.4-0.1,8.8-1.1,13.1c-1.4,6.4-2,12.9-3.6,19.2c-1.3,5.2-1.9,10.5-3.3,15.7c-0.6,2.3,0.1,3.7,2.5,4.3
	C396,259.3,395.2,261,392.2,260.4z"/>
<path class="st74" d="M343,232.3c-6.4,0.7-12.6,0.8-18.5-2.5c-2.2-1.2-4.4-2.7-7-3.1c-8.8-7.2-16.3-16-22-25.8
	c-1.1-1.5-1.7-3.2-1.7-5.1h1c3.8,4.1,6,9.3,9.6,13.6c3.4,3.9,6.8,7.8,12,9.4c2.9,0.9,4.8,3.8,8,4.2c3.1,0.7,6,2.3,9.1,3
	c1.6,0.6,3.3,0.3,4.9,0.6C341.3,227.2,343.6,228.6,343,232.3z"/>
<path class="st48" d="M270.3,204.9c2.7-5.4,6.8-9.9,9-15.5c0.8-2.1,1.7-4.2,2.7-6.2c0.7-1.5,1.8-2.9,3.7-2.8
	c1.7,2.4-1.7,1.3-1.8,2.5c-2.9,6-5,12.4-9.3,17.7C273.3,202.2,272.2,203.9,270.3,204.9z"/>
<path class="st75" d="M278.4,175.7c-1,0.7-0.8,1.8-0.9,2.7c-0.7,2.5-1.6,5-2.7,7.3c-3,5.4-5.2,11.2-10,15.4
	c1.8-6.1,6.3-10.8,8.5-16.7c2.3-6.5,5.3-12.7,5.9-19.6l0.1-1l1,1l0.9,0.9C282.9,169.8,279.8,172.5,278.4,175.7z"/>
<path class="st59" d="M35.3,368.5c0.7,0.3,1.4,0.5,2.1,0.7c2,0.4,4.7,1.3,5.9-0.5s0.1-3.9-1.2-5.7c-0.7-1-2.1-2.4-0.9-3.6
	c1.2-1.2,2.4,0.3,3.5,1c2.5,1.5,5.3,2.2,8.2,2c3.5,0,6.9,0.4,9.8,2.5l-0.2,0.3c-4.8,0.5-9.6,1.6-14.2-0.1c-1,0.8-0.6,1.5-0.3,2.1
	c0.9,2,1.7,4-0.1,5.8s-4.1,1.4-6.3,0.8c-1.2-0.5-2.5-0.9-3.8-1.3c-0.5-0.1-0.9-0.3-1.3-0.5c-0.6-0.3-1.1-0.9-1.4-1.5
	C34.6,369.8,34.8,369,35.3,368.5z"/>
<path class="st76" d="M44.4,392.3c-3.3-0.4-5.7-2.3-7.9-4.7c-1.4-1.5-2.8-2.8-0.6-4.7s0-3.2-0.9-4.5c-1-1.3-2.2-2.4-3.4-3.4
	c-0.4-0.9-0.7-1.7-1.1-2.6l0.6-0.4c1,0.1,2,0.6,2.7,1.3c0.3,0.3,0.6,0.5,0.9,0.8c2.8,2.8,5.4,5.6,8.8,7.7c2.2,1.3,4.1,2.9,2,5.8
	c-1.1,1.5,0.2,2.5,1,3.6c0.1,0.4,0,0.9-0.2,1.2C45.6,392.8,44.9,392.7,44.4,392.3z"/>
<path class="st76" d="M35.3,368.5v1.7c-0.6,0.5-1.2,0.2-1.7-0.2c-0.9-1-2.1-1.8-3.3-2.2c-0.4,1.2,0.7,1.7,0.9,2.6
	c0.2,0.6,0.1,1.3-0.3,1.8l-0.3,0.2c-2.1-1.7-3.9-3.7-4.5-6.5c-0.2-1-1.1-2,0-2.9s2,0.2,2.9,0.6C31.3,364.9,33.5,366.6,35.3,368.5z"
	/>
<path class="st33" d="M392.2,260.4c2.1-0.3,3.4-1.4,3.6-3.7c-1.5-2.1-0.2-4,0.5-5.9c0.6-1.7,1.1-3.4,1.5-5.2
	c3.9-19.7,9.4-39.1,13.6-58.8c1.3-6.2,3.9-12.1,4.3-18.5c0.2-1.2,0.6-2.3,1.2-3.4c0.6-0.9,1.1-2.1,2.6-1.9l0.2,0.1
	c-3.1,13.3-5.6,26.8-9.6,40c-0.3,1.5-0.5,3-0.6,4.5c-3.4,11.7-6.2,23.5-8.2,35.5c-1.2,4.6-2.4,9.1-3.6,13.6
	C395.9,258.1,396.5,262.8,392.2,260.4z"/>
<path class="st77" d="M44.4,392.3h1.9c5.4-1.8,9.9,0.3,13.6,3.7c3.4,3,6.6,4.8,11.3,3.9c3.2-0.6,4.5,1.3,3.7,4.8
	c-0.6,2.2,0.2,2.7,2.1,2.8c2.6,0.1,5.2-0.1,7.7,0.1c2.8,0.2,5.1,1.2,4.9,4.6c-0.1,2.3,1.2,3.2,3.3,3.5c6,0.9,12,1.7,18,2.6
	c4.2,0.6,7.9-1.8,12-2.1c1.7-0.1,3.4-0.5,4.8,0.7c2.6,2.5,5.7,2.6,8.9,2c3.2-0.6,6,0,5.9,4c-0.1,3,3,1.4,3.8,3l-3.7,2.7h-3.5
	c-0.6-0.4-1.5-0.9-1.4-1.6c0.4-5-3-4.5-5.8-3.6c-3.4,1-5.6,0.4-7.6-2.7c-1.7-2.7-4.1-1.8-6.2-0.2c-0.6,0.2-1.1,0.7-1.7,0.6
	c-7.8-0.6-15.9,1.9-23.4-2.2c-1.5-0.7-3.1-1.1-4.8-1.2c-1.7-0.2-3.3-1-3.4-2.5c-0.5-4.6-3.6-4.6-7.1-5s-8,0.3-9.1-4.9
	c-0.2-0.6-0.7-1-1.3-1.1c-5.4-0.4-8.3-4.5-11.9-7.5c-3.2-2.7-6.9-3.5-10.8-3.7C44.5,392.8,44.4,392.5,44.4,392.3z"/>
<path class="st78" d="M466,366.8c10.1-0.8,18.8-5.1,27.5-9.8c6.2-3.4,12.4-6.8,18.3-10.5c4.3-2.7,9.2-4.6,12.5-8.7l8-5.7
	c1.3-0.4,2-1.8,3.3-2.1c1.7-0.4,3-0.1,2.1,2.2l-0.9,0.9c-6.3,5.1-10.9,11.6-15.4,18.3c-0.4,0.3-0.9,0.3-1.2-0.1c0,0,0,0,0-0.1
	c-0.3-0.6-0.5-1.3-0.3-2c1.2-3,3.9-5,5.6-8.2c-10.7,7.3-21.7,13.2-32.7,19.4c-11.6,6.5-24,10.8-37.7,9.6c-2.7,0-5.5,0-8.2,0.1
	c-8.2,1-15.5-2-22.9-4.6c-2.6-1.1-5.5-1.7-8.3-1.8c-2.6-0.6-5.5-0.2-7.5-2.6c-0.1-0.5,0-1,0.4-1.4c6.9-0.2,13.5,2.1,19.8,4.1
	C440.9,367.6,453.2,368.2,466,366.8z"/>
<path class="st30" d="M537.8,332.1c-1.8-4.3-3.6,1.1-5.4-0.1c2.1-3,5.4-4.7,8.3-6.7c0.6-0.5,1.5-0.5,2.1,0c0.7,0.7,0,1.4-0.4,2
	C541,329.2,540.1,331.3,537.8,332.1z"/>
<path class="st75" d="M264.6,202.8l-7.1,6.6c-0.2,0.3-0.6,0.3-0.8,0.1c-0.1,0-0.1-0.1-0.2-0.2l2.9-3.6l5.4-4.6L264.6,202.8z"/>
<path class="st26" d="M256.5,209.4l1,0.1c-5.6,5.2-11.6,9.7-19.1,11.9c-1.6-0.1-2.8,0.8-4,1.6c-1.6,1.1-3.5,1.8-4.6-0.2
	s1.3-2,2.5-2.7c0.6-0.4,1.1-1,1.5-1.6c1-3.1,3-4.4,6.3-3.8l0.2,0.3c-0.6,1.4-3.5,2.2-2.1,3.8c1.1,1.4,3.2,0.4,4.8-0.7
	C247.4,215.1,252,212.3,256.5,209.4z"/>
<path class="st79" d="M255.6,196.6v1.7c-4.4,4.7-7.7,10.5-13.6,13.8c-0.7,0.6-1.7,0.7-2.4,0.2c-0.4-0.5-0.4-1.2,0-1.6
	c0.1-0.1,0.2-0.2,0.3-0.2c5.3-3.5,9-8.6,13.3-13.2C253.8,196.6,254.7,196.4,255.6,196.6z"/>
<path class="st80" d="M239.4,212.1h2.6l-1.9,2.6c-2.4,0.7-4.5,2-6.3,3.8l-1.8,0.1l-0.3-0.5c0.5-2.8,3.3-3.2,5.1-4.6
	c0.6-0.5,1.3-0.9,2-1.2L239.4,212.1z"/>
<path class="st66" d="M463.2,425.9l-1.8-0.9c0-0.3,0-0.6,0-0.9c1.6-1.1,2-2.5,1.8-4.6c-0.4-4.8,2.1-6.5,6.5-4.4
	c2.8,1.3,5.1,1.4,7.6-0.6c2.1-1.7,4.5-1.6,6.9-0.8c1.8,0.6,3.2,0.9,3-2s1.8-3.1,4-2.2c0.3,0.1,0.6,0.3,0.8,0.5
	c6.3,6.4,13.7,3.9,21,2.8c1.2-0.2,2.2-1.2,2.5-2.4c1.4-3.7,4.2-5,7.9-4.8c3.5,0.2,7.1,0.5,7.6-4.7c0.2-1.8,2.2-2.5,3.9-2.5
	c4.7,0,8.2-2.1,11.8-4.9c4.5-3.5,10-5,15.7-2.2c0,0.3,0,0.6,0,0.8l-3.5,0.1c-5.5,0.7-10.6,2.1-13.7,7.2c-2.5,1.9-5.3,0.6-7.9,0.9
	c-2.9,0.3-5.3,0.6-2.2,4.1c1.5,1.8,1.2,3-1.3,3.2c-3.3,0.3-6.5,1.1-9.9,0.9c-3-0.2-4.8,0.9-3.8,4.3c0.7,2.1-0.4,2.8-2.2,3
	c-6.9,0.7-13.7,1.9-20.4,3.6c-3,0.7-5.1-1.4-7.7-2c-3.6-0.8-6.6-1.2-9.6,1.8c-2.5,2.5-5.7,1-8.6,0.2c-3-0.8-5-1.1-3.9,3.3
	C468.6,426.7,465.4,425.8,463.2,425.9z"/>
<path class="st81" d="M545.2,399.6c2.6-6.2,7.8-7.3,13.7-7.2C553.7,393.6,548.9,395.6,545.2,399.6z"/>
<path class="st82" d="M520.6,351.3h0.9c0,6.5,0.5,7.1,6.9,8.3c3.7,0.7,7.3,1.6,9.7,5c1.3,1.8,3.5,2.7,5.7,2.1
	c4.4-1.4,8.7-0.1,13,0.1c2.8,0.1,3.9,1,1.8,3.5c-3,3.6-0.6,3.5,2.3,4c5.8,1,10.1-2,14.7-4.6c2.5-1.4,2.5-0.1,2.4,1.7
	c-2.7,3.1-5.7,5.9-9,8.3c-0.6,0.5-1.4,0.5-2,0c-0.5-1.9-1.8-2.6-3.7-2.5c-2.1,0.1-4.2,0.1-6.4-0.2c-3-0.4-5.6-1.5-6.6-4.7
	c-0.8-2.6-2.6-3.5-5.2-3.3c-3.7,0.4-7.3-0.9-9.9-3.6c-2.3-2.4-5.5-2.3-8.4-3.1C520.3,360.4,518.2,356.7,520.6,351.3z"/>
<path class="st83" d="M567,379.5l1.9,0.1c-0.8,1.4-2,2.6-3.4,3.4c-2.1,1.2-3.2,2.3-1.3,4.7c1.5,1.9-0.3,2.8-1.7,3.7
	c-7-0.4-13.5,0.2-18.6,6.1c-1.8,2-5,2.1-7.7,2c-3.1-0.1-5,0.7-4.8,4.3c0.2,2.4-1.4,3.1-3.5,3.1c-2,0-4,0-5.9,0
	c-2.8-0.1-4.7,0.8-5.1,3.9c-0.1,2-1.8,3.6-3.9,3.4c-0.1,0-0.1,0-0.2,0c-3.4-0.1-6.6,0-9.5,2.2c-1.1,1-2.8,0.9-3.8-0.2
	c-2.2-2.9-6.3-3-8.7-5.6c-0.5-0.8-1.6-1-2.4-0.5l0,0c-0.9,0.7-0.5,1.6,0,2.4s1.5,1.8,0.7,2.8s-2.2,0.7-3.3,0.2
	c-3.6-1.6-6.8-1.9-9.8,1.5c-1.8,2-4.3,0.7-6.3-0.5c-1.5-1-2.9-2-4.5-0.8s-1.4,3-0.8,4.6c1.2,3.2,0,4.2-3.1,4l0,0
	c-0.8-0.5-1.5-1.1-1-2.2c1.5-1.5,0.7-3.4,0.8-5.2c0.3-3.8,2.6-6.1,5.9-4.9c4.9,1.9,9.2-1.1,13.8-0.9c0.8,0,1.3-0.5,1.6-1.3
	c1.9-4.9,1.9-4.9,6.7-2.9c0.6,0.3,1.2,0.5,1.8,0.9c0.4,0.2,0.8,0.4,1.1,0.7c2.4,2.1,4.9,3.4,8.2,1.7c1.6-0.8,3.2,0.3,4.7,1
	c4.4,2,6.1,1.1,7.3-3.5c1.2-4.6,4.5-6.3,8.9-4.3c0.6,0.2,1,0.6,1.6,0.8c4,1.6,5.3,0.6,5.3-3.8c1-3,3.6-2.8,6-2.8
	c3.7-0.1,7.1-0.6,9.9-3.5c2.2-2.1,4-3.5,1.8-7.1c-1.9-2.9,0.4-4.8,5.6-4.7c0.4,0.1,0.9,0.2,1.3,0.4c1.9,0.8,3.3,2.6,3.7,4.7
	c0.1,1.2,1.2,2,2.4,1.8c0.1,0,0.2,0,0.3,0c2-0.5,0.9-1.8,0.5-2.8c-1-2.4,0.7-3.5,2.3-4.7C563.5,380.8,564.8,379.1,567,379.5z"/>
<path class="st84" d="M283.3,133.8c1.2,0,2.4,0.5,3.3,1.3c1.2,1,3.4,1.5,3.3,3.4c-0.2,2.3-2.5,1.6-4,1.8c-3.5,0.6-5.6,4-9.3,4.2
	c-1,0-2.1,0.7-3-0.1c-1.1-1-0.5-2.2-0.1-3.3C275.2,137,277.6,133.9,283.3,133.8z"/>
<path class="st85" d="M284.7,151c-1,2-2.2,3.7-4.9,3.7c-1.6,0-3.4-0.5-3-2.4c0.4-2.3,2.4-4,4.8-3.9
	C283.2,148.4,284.5,148.9,284.7,151z"/>
<path class="st86" d="M425.9,126.6c1,0.7,1.9,1.5,2.7,2.4c1.4,1.7,1,3-1,3.9c-5,2.1-9.9,4.2-14.9,6.3c-1.2,0.5-2.5,1.8-3.6,0.4
	c-0.9-1.1-0.5-2.6,0.1-3.9C412.6,126.8,415.9,125,425.9,126.6L425.9,126.6z"/>
<path class="st87" d="M412.8,152c-1.5,0.1-2.6-0.3-3.1-1.6c-0.4-1-0.4-2.7,0.6-2.8c3.6-0.6,5-4.6,8.6-5.2c1.4-0.2,2.7-0.5,3.7,0.7
	c1,1.2,0.2,2.2-0.3,3.4C420.6,151,416.2,150.8,412.8,152z"/>
<path class="st88" d="M419.5,162.9l-1.7,1.9c-0.6-0.5-0.9-1.2-0.8-1.9c0.5-3.8-1.2-2.8-3-1.4c-1,1-2.1,1.9-3.3,2.7
	c-0.4,0.1-0.8,0-1.1-0.2v-1.1c2.1-2.3,3.7-5.2,7.3-5.5c1.3-0.1,2.6-1.2,3.8,0.2s-0.3,2.5-0.7,3.7
	C419.8,161.8,419.6,162.4,419.5,162.9z"/>
<path class="st89" d="M323.9,223.9c-13.7-5.2-23.5-14.5-29.1-28.2c-0.5-0.9-1-1.9-1.4-2.8c-0.4-1-1.9-2.2-0.5-3.1
	c1.3-0.9,3-0.8,4.2,0.2c1.4,1.4,3.2,3,3.4,4.7c0.8,7.5,7.3,10.1,11.6,14.7c0.3,0.3,0.6,0.6,1,0.9c1.5,4.5,5.6,6.9,8.6,10.2
	C322.6,221.5,324.4,221.9,323.9,223.9z"/>
<path class="st90" d="M343,232.3c-1-3.6-3.4-5.1-7.1-4.7c-1,0.3-2.2-0.1-2.9-0.8c-0.3-0.4-0.3-0.9,0-1.2c3.8-2.1,8.2,0,12.2-1.6
	c-2.1-1.6-5.4,0.9-6.6-2.5c5.4-0.6,10.9,0.6,16.2-1.1c3.2-1,6.6-1.7,9.5-3.6c1.1-0.8,2.6-1,3.8-0.4c1.3,1.4-0.2,1.9-0.9,2.7
	c-4.1,2.7-8.7,4.7-12.4,8c-1.4,1.2-2.9,2.4-0.9,4.4C350.4,233.1,346.6,231.7,343,232.3z"/>
<path class="st91" d="M338.7,221.4c1.9,1.4,4.1,0.4,6.1,0.7c1.2,0.2,3.2-0.8,3.2,1.2c0,1.5-1.6,2.4-3.3,2.4c-3.9,0-7.8,0-11.7,0
	c-4.5-0.3-8.8-2.3-11.9-5.7c-1.3-1.4-3.1-3.4,1-3.5C327.4,219,332.9,220.7,338.7,221.4z"/>
<path class="st92" d="M322.1,216.5c-2.8,0.8-1.1,2-0.2,3.1c2.8,3.9,7.3,4.4,11.2,6.1v1l-9.1-2.8c-3.3-3.1-6.6-6.3-10-9.4
	c-1.3-1.2-2.2-2.4-1-4.2C316.4,211.8,319.2,214.3,322.1,216.5z"/>
<path class="st93" d="M278.4,175.7c0-3.6,2.7-6.4,2.8-9.9c1.5,0.9,2.9,2,4.2,3.2c1.3,1.1,1.6,3,0.9,4.5c-0.9,1.6-2.5,1.7-3.9,1
	C280.5,173.5,279.7,175.3,278.4,175.7z"/>
<path class="st94" d="M368.5,216.6c-1.4-0.2-2.8,0.3-3.8,1.2c-2.9,2.5-6.2,2.8-9.8,2.5l3.6-2.7c4.1-3,9.6-2.2,13.6-5.5
	c0.1,0.2,0.2,0.3,0.3,0.5c-0.1,1-0.3,1.9-0.7,2.8c-0.1,0.4-0.4,0.7-0.7,0.9C370.3,216.7,369.5,217.5,368.5,216.6z"/>
<path class="st93" d="M274.8,185.8c0-2.8,1.5-5,2.7-7.3C277.7,181.2,276.7,183.9,274.8,185.8z"/>
<path class="st95" d="M317.5,176.6c0.1-0.3,0.1-0.5,0.2-0.8c3.1-0.8,4.3-3.6,6-5.8c0.8-1.1,1.5-2.3,2.4-3.3c0.9-1.2,2.6-1.5,3.9-0.6
	c0.1,0,0.1,0.1,0.2,0.2c1.7,1.4,0.1,2.3-0.7,3.3c-0.4,0.5-0.7,1-1,1.5l-2.1,1.7c-4.2,3.4-7,8.4-12.8,11
	C313.7,180.2,317.6,179.5,317.5,176.6z"/>
<path class="st94" d="M409.5,163.9l0.9-0.1c1.6,3.8-1.3,6.9-1.9,10.4c-0.8,4.4-2.4,8.7-3.1,13.2c-0.5,3.4-2.3,5.2-6,4.3
	c-2.5-0.6-4.3,0.5-6.1,2.2c-3.6,3.3-6.2,7.4-9.8,10.7c-1.3,1.2-2.4,2.8-4.6,2.4l-0.5-0.5c3.4-3.9,7.4-7.3,10.1-11.7
	c0.9-1.4,2.1-2.6,2.8-4.1c1.2-2.8,3-4.5,6.3-3.7c1.9,0.4,3.9-0.4,3.1-2.5c-2-4.9,0.8-8.1,3.3-11.5
	C404.4,169.1,408.4,167.4,409.5,163.9z"/>
<path class="st96" d="M404,173c0.1,1.9-1.5,2.9-2.2,4.4c-0.7,1.7-1.6,3.1-0.1,5c1,1.6,1.1,3.6,0.2,5.2c-1,1.7-3,1.2-4.5,0.6
	c-2.6-1-4,0.2-5.1,2.2c-0.9,1.7-1.6,3.6-3.6,4.5C392.2,186.4,398.4,179.9,404,173z"/>
<path class="st94" d="M372.2,212c1.9-2.1,3.4-4.6,6.4-5.5l0.2,0.2c-0.8,3.3-2.4,5.8-6.4,5.5L372.2,212z"/>
<path class="st97" d="M151.8,127.6l0.9,0.9c0.1,1.4,0,3.1-1.6,3.3c-3.8,0.5-6.1,3.8-9.7,4.6c-1.2,0.2-2.5,1.9-3.6,0.4
	c-1.1-1.5-0.8-3.2,0.1-4.7c2.2-3.9,6.5-6,10.9-5.4C149.8,126.9,150.8,127.2,151.8,127.6z"/>
<path class="st80" d="M213.7,220.3l1-0.9c1-0.6,1.9-1.7,3.1-1.8c3.5-0.2,4.7-2.6,5.7-5.4c1.5-0.7,2.1,0.6,2.1,1.4
	c0.1,3.6,1.9,4.6,5.1,4.1c0.4-0.1,0.8,0.3,1.1,0.6l0.1,0.1c-4.9,2.8-10.2,3.7-15.7,4.4C214.7,223.1,212.2,223.6,213.7,220.3z"/>
<path class="st98" d="M233.8,321.3c-1.2-0.9-2.3-2.3-3.6-2.6c-9.1-2.3-14.6-9.8-21.9-14.7c1.8-1.5,3.4-0.4,5,0.6
	c1.6,0.9,3.1,2,4.4,3.2c5.4,5.8,13.5,7.3,19.7,11.7c1,0.7,2.2,1,3.5,0.9c3.1-0.4,5.7,0.2,7.6,2.9c0.4,0.6,1.1,1.2,1.9,0.8
	c1-0.5,0.9-1.5,0.7-2.4c-0.7-2.9-1.2-6-1.2-9c0.1-1.2-0.8-2.3-2-2.4c-0.1,0-0.2,0-0.2,0c-1.2-0.1-2.7,0-3.4-0.9
	c-4.3-6.2-10.8-8.8-17.2-11.7c-2.8-1.3-5-3.6-5.9-6.6l0.1-1c5.5,2.4,10.8,5.1,16.5,6.9c1.2,0.4,2.2,1.6,3.1,2.5c1.9,2,4,4.2,6.6,4.6
	c5.7,0.9,6.2,4.9,6.4,9.3c0.1,2.9,0.3,5.7,0.8,8.5c0.5,2.7-0.2,5.3-2.6,6.8s-4.2-0.6-5.9-2.1c-0.9-0.8-1.8-1.9-3.1-1.6
	C239.1,325.8,236.4,323.6,233.8,321.3z"/>
<path class="st99" d="M123.6,238.5c4.1-0.3,7.2,2.7,10.9,3.6l26.4,12.9c5.4,3.8,10.7,7.6,17.3,9l0,0c5.8,4.6,12.2,8.3,19.1,10.9
	c2.2,0.9,4.2,2.4,5.5,4.4c0.2,0.2,0.3,0.5,0.2,0.8c-0.1,0.2-0.1,0.4-0.2,0.4c-1.3,0.3-2.4,1.2-2.8,2.5c-1.6,4.2-3,4.5-6.6,1.8
	c-4-3-11-2.5-14.1,0.9c-0.3,0.2-0.7,0.4-0.8,0.3c-3.5-4.3-8.8-2.8-13.2-4c-1.2-0.5-2.4-1.2-3.4-2c-3-3.9-7.3-5.1-11.9-5.5
	c-8.6-5.2-17.7-9.4-26.6-14c-0.1-0.4-0.1-0.9,0.1-1.3c2.2-1,4.2-0.2,6.1,0.7c4.4,2.2,9.1,3.9,13.9,7.5c-3.9-3.7-7.4-6.2-10.7-9
	c-1.5-1.3-3.3-2.7-1.8-4.9s3.7-1.7,5.8-0.8c0.4,0.2,0.8,0.4,1.2,0.7c1.3,0.8,2.7,2,3.7-0.2c0.7-1.7,1.9-4-0.8-5
	c-3.9-1.5-7-4.4-11.7-4.4c-3.1,0-6-2.3-7.4-5.5C122.4,237.9,123.1,238,123.6,238.5z"/>
<path class="st100" d="M165.5,281.4c2.6-0.3,5.1,0.4,7.8-0.3c2.9-0.7,3.3,3.9,5.9,4.7l0.6,0.1c5,3,10.4,5.4,16,7.2
	c2.9,1,5.7,2,7.9,4.3c1.8,1.9,4.2,2.9,6.5,4c3.5,1.7,6.6,4.2,10.7,4.6c2.7,0.3,4.1,2.9,5.8,4.8c0.8,0.9,1.8,2,3.1,1.3
	c2.1-1.1,3.2-3.1,3.9-5.3c0.4-1.2-0.3-2.4-1.4-2.8c-0.1,0-0.1,0-0.2-0.1c-6.3-1.5-8.8-6.9-12.2-11.5c-0.1-0.4-0.1-0.9,0.2-1.2l1-0.1
	c3.4,2.3,5.4,6.8,9.6,7.4c6.2,0.9,9.9,4.6,13.1,9.3c0.7,1.3,2.2,1.9,3.6,1.4c3.5-1.3,4,0.8,3.8,3.4c-0.1,3,0.3,6.1,1.3,8.9
	c0.5,1.8,0.7,3.2-1.3,4.2s-2.8-0.5-3.5-1.8c-1.1-1.9-2.6-3.4-4.8-2.7c-4,1.2-6.7-1.1-9.5-3c-1.8-1.4-3.9-2.3-6.1-2.6
	c-4.4-0.6-6.3-5-9.9-6.9c-3-1.6-5-5-9-4.9c-10-6.4-21.5-10-31-17.2c-1.8-1.8-4.4-1.6-6.5-2.4C168.9,283.7,166.3,284,165.5,281.4z"/>
<path class="st101" d="M220.2,291.3c0,0.3,0,0.6,0,0.9c-0.3,0.3-0.7,0.6-1.1,0.7c-1.2,0.3-2.3,0.7-3.4,1.2c-2.4,1.2-4.2,0.4-6-1.4
	c-3.4-3.5-4.9-8.1-6.9-12.3c0-0.3,0-0.7,0-1c2.5,0.7,3.9,2.8,5.4,4.7c3.2,2.8,7.7,3.4,10.8,6.4L220.2,291.3z"/>
<path class="st102" d="M197.4,274.9c-7.7-1.4-13.7-5.6-19.1-10.9L197.4,274.9z"/>
<path class="st102" d="M178.2,264c-7.2-0.4-12.5-4.3-17.3-9L178.2,264z"/>
<path class="st100" d="M219.2,290.4c-3.6-2.2-8.3-2.4-10.8-6.4C212.2,285.7,216.6,286.5,219.2,290.4z"/>
<path class="st103" d="M123.7,260.2c9.2,3.8,18,8.4,26.4,13.7l0.3,0.6L150,275c-10.1-5.7-21.1-9.6-30.5-16.5c-2-1.3-4.3-2.3-6.6-2.8
	c-9.1-3.6-18.2-7.5-28.1-8.1c-5.2-0.3-10.5-1.3-15.8-0.2c-1,0.2-2.7,0.7-3.1-0.9c-0.3-1.1,1-1.7,1.7-2.5c1.6-1.9,3.8-2.3,6-2.9
	l3.7,0.1c0.2,1.8-2,1.5-2.8,3c2.6,0.5,5.2,0.6,7.8,0.2c4.9-0.8,10,0,14.4,2.3c5.5,2.5,11.2,4.6,17,6.2
	C117.7,254.3,121.7,255.9,123.7,260.2z"/>
<path class="st104" d="M123.7,260.2c-7.4-7.2-18.1-7.1-26.6-12c-6.6-3.8-13.6-2.2-20.5-2.5c-1.6-0.1-4.3,1.1-4.6-1.4s2.4-2,4-2.4
	c0.4-0.2,0.8-0.4,1.1-0.7c5.5,0.6,9.8-3.8,15.1-4c1.3-0.1,2.7-0.4,4-0.5c7.3-0.8,14.5-1.5,21.8,0.1c1.5,1.6,4-0.1,5.5,1.6l-1.9,0.1
	c-2,1.7-4.4,1.4-6.5,0.9c-7.6-1.6-15,1.4-22.6,0.5c5.6,4.9,11.3,9.6,18.8,10.8c3.6,0.7,7,2.2,9.8,4.6c1.3,1,2.7,2,2.4,4
	C123.7,259.6,123.7,259.9,123.7,260.2z"/>
<path class="st105" d="M118.1,236.8l-21.8-0.1C103.6,235,110.9,233.9,118.1,236.8z"/>
<path class="st106" d="M239.4,363c1.6,0.2,2.4,1.6,3.6,2.5c1.4,1,3.8,1.8,3.2,3.8c-0.8,2.4-3.3,0.9-5.1,1.1
	c-3.3-1.6-6.6-3.3-9.6,0.8c-0.6,0.7-1.5,1.1-2.4,1.1c-6.4-0.5-3.5,2.3-1.7,4.8c5,6.9,4.9,6.8-3.2,9.3c-2.3,0.7-4.2,0.2-6.1-0.5
	c-1.7-0.6-3.8-0.4-3.2,1.4c1.3,4.4-2.2,5.2-4.5,6.6s-4.6,2.6-5.5,5.6c-0.6,1.6-2.1,2.7-3.8,2.9c-7.6,0.8-13.8,5-20.5,8.3
	c-5.4,2.6-10.4,5.8-15.8,8.4c-0.7,0.2-1.4,0.6-2,1.1c-3.7,4.4-8,6.8-13.9,4.1c-0.6-1.2,0-2.1,0.6-3.1c0.6-0.7,1.4-1.2,2.2-1.5
	c5.9-3,12.1-5.2,18.2-7.6c1.6-0.6,2.1-2.1,3.2-3.1c0.9-0.9,1.9-2,3-1.9c6.6,0.7,10.2-4.9,15.3-7.2c2.1-1.4,4.1-3,7-2.1
	c2.6,0.8,3.2-1.4,3.4-3.1c0.5-3.8,2-6.2,6.2-6.3c1.3,0.1,2.4-0.8,2.5-2.1c0-0.2,0-0.3,0-0.5c0-3.9,2.4-4.8,5.7-4.7
	c2.3,0.1,4.5,0,6.8,0.1c2.8,0.2,3.2-1,2-3.2c-0.4-0.6-0.9-1.2-1.4-1.8c-2.8-4-2.2-5.9,2.6-6.9c1.7-0.4,3-1.4,4.4-2.1
	c1.7-0.6,3.5-0.9,5.4-0.6c2.5,0.2,3.2-1,2.9-3.2L239.4,363z"/>
<path class="st107" d="M150.1,421.6c-0.3,0.9-0.6,1.7-0.9,2.5l-2.7,1.8c-2.7,0.2-6.7,2.2-4.8-3.8c0.6-1.8-1.1-2.8-2.9-2.5
	c-4.5,0.9-8.6,2.1-12.4-2.4c-1.4-1.6-5.1-0.2-6.8,0.7c-5.9,3.2-11.5,0.6-17.2,0.3c-3.4-0.2-6.8-1.2-10.3-1.4c-3-0.2-4.3-1.9-3.7-4.4
	c0.9-3.3-1.1-3.7-3.3-3.8c-2.9-0.1-5.8,0-8.6-0.1c-4.1-0.2-4.6-1.2-2.4-4.6c0.5-0.8,1.2-1.4,0.3-2.3c-0.9-0.9-1.7-1.4-2.8-1
	c-5.2,1.9-8.8-0.1-12.3-3.9c-3.3-3.6-8.2-4.2-12.9-4.6c0-0.3-0.1-0.6-0.1-0.8c5.7-2.4,10.7-0.4,15.5,2.5c1.5,0.9,2.5,2.5,4,3.5
	c2.4,1.5,5,0.7,7.5,0.9c4.1,0.4,5.3,1.5,5,5.7c-0.1,1.7,0.4,2.2,1.8,2.4c1.4,0.2,2.7,0.2,4.1,0.1c4.6-0.5,8.5,0.1,10,5.4
	c0.1,0.4,0.4,0.8,0.8,1.1c1.7,1.5,14.5,1.9,16.4,0.5c2-1.4,4-2.7,6.1-3.9c3.1-1.8,4.8-0.8,4.4,2.7c-0.3,2.4,0.9,2.4,2.3,1.8
	c3.2-1.5,7.1-1,9.8,1.3c1.9,1.5,4,0.5,6-0.3c4.5-1.6,6.7,0.2,5.9,5c-0.4,2.1-0.2,2.7,1.9,1.6C148.4,421.4,149.2,420.8,150.1,421.6z"
	/>
<path class="st54" d="M115.2,420.7c2.2-3,6-3.2,7.4-0.8c3,5,6.8,3.6,10.7,2.6c4.6-1.2,7-1.1,4.9,4.4c-0.3,0.7,0.5,1.9,0.8,2.8
	c-0.7-0.2-1.8-0.2-1.9-0.6c-1.9-6-6.1-4.4-10.4-3.3c-3.3,0.8-7.3,3.2-6-4C121.5,418.2,117.3,420.8,115.2,420.7z"/>
<path class="st108" d="M476,264c-1.4-0.5-3.1,1.4-4.1-0.4s0.8-3,1.9-4.1c1.2-1.3,2.6-2.6,3.8-3.9c0.6-0.7,1.3-1.4,0.6-2.4
	c-0.6-1-1.8-1.3-2.7-0.7c0,0,0,0-0.1,0c-1.7,0.9-3.4,1.9-5.1,2.9c-1,0.5-2.1,0.7-2.9-0.2c-0.6-0.7-0.6-1.8-0.1-2.5
	c2-2.4,4.3-4.6,5-7.8c0.1-0.4,0.9-0.8,1.5-1c8.1-2.4,15.8-6.3,24.6-6.1c6.2,0.1,12.3,1.3,18.5,0.9c0.9-0.2,1.9,0.3,2.2,1.1
	c0,0.4-0.2,0.9-0.5,1.1c-6.7,3-11.3,9.6-19.1,10.8c-2.8,0.4-5.1,0.9-7.6-1.2s-4.3-0.4-3.8,2.3c0.7,4.6-2.3,6.1-5.5,7.5
	C480.1,261.2,477.4,261.6,476,264L476,264z"/>
<path class="st108" d="M441.4,279.2c-2.5-0.5-5-1.1-7.5-1.8c-2.8-1.1-3.3-4.6-0.8-7.2c3.3-3.4,7.1-6.5,10.7-9.6
	c3.1-2.8,6.6-5.1,10.5-6.7c2.8-1,3.9-1.2,5.9,1.1c4.1,4.8,4.5,4.9-0.2,9s-9.4,8.5-13.8,13C444.8,278.4,443.1,278.7,441.4,279.2z"/>
<path class="st109" d="M386.7,294c2.7-1.7,4.6-4.2,9.1-2.5c3.2,1.3,5.4-3.8,6.7-6.7c1.1-2.8,3.3-5,6-6.3c0.3,0.5,0.5,1.1,0.7,1.6
	c1.5,5.6,3.1,6.1,7.8,2.2c2-1.7,9.9-1.6,11.4,0.4c2.5,3.3-0.9,4.2-2.6,5.8c-0.1,0.1-0.3,0.3-0.4,0.2c-5.9-0.8-10.2,3-15.2,5
	c-2,1.2-3.4,3.3-5.4,4.4c-3.5,0.7-6.3,2.6-9,4.9c-0.8,0.6-1.7,1-2.7,1.1c-6.9-0.1-9.1-3.6-6.5-10.1L386.7,294z"/>
<path class="st99" d="M409.5,293.1c2.6-1.8,5.9-2.4,8.3-4.8c2.4-2.4,5.3,0.8,8.1,0.2c0,0.3,0,0.6,0,0.9c-0.3,0.1-0.5,0.1-0.8,0.1
	c-2.3,0.5-4.5,1.4-6.4,2.7C416,293.9,412.8,294.9,409.5,293.1z"/>
<path class="st110" d="M228.2,358.9l2,1.6c-0.7,0.7-1.7,0.9-2.6,0.7c-0.5,0-1-0.1-1.4-0.3c-15.5-2.4-30.4,0.8-45.3,4.8
	c-0.5,0.2-1,0.3-1.5,0.4c-9.4,4.1-19.6,2.5-29.3,3.6c-6.3,0.6-12.7-0.5-18.4-3.4c-13.6-4.7-38.9-18.9-52.4-29.5
	c1.7,2.9,4.3,4.8,6,7.3c0.9,1.4,2,2.7,1.7,4.5c-0.1,0.4-0.4,0.7-0.8,0.9c-4.2-6.5-10.3-11.5-15-17.6c-0.9-1.1-2.9-2.3-1.5-3.7
	c1.2-1.2,2.8,0.5,3.9,1.4c13.7,10.8,28.9,19.3,44.1,27.7c10.4,5.7,21.5,10.1,34,9.6c9.4-0.4,18.7,0.1,27.6-3.8
	c6.6-0.5,12.8-3,19.2-4.4C208.3,358.2,218.2,356.7,228.2,358.9z"/>
<path class="st111" d="M37.2,371.4c2.4-0.5,4.2,1.8,6.5,1.7c1.5,0,3.2,0.4,4.1-1.3c0.8-1.3,0.3-2.5-0.5-3.8s-2.6-2.8-1.1-4.3
	s3.1,0,4.6,0.7c3.9,1.8,8.1-1.5,11.9,0.7c3.4,1.5,6.5,1.4,8.5-2.3c1.8-3.2,5-3.7,8.1-4.1c6.6-0.8,7.3-1.6,7.1-8.3
	c3.2,1.9,3.8,4.9,1.5,7.5c-1.1,1.5-2.8,2.4-4.6,2.7c-5.4,0.4-9.5,3.2-13.3,6.7c-5.3,1.7-10.8-0.5-16.1,1c-0.9,1.3,0.5,1.9,0.9,2.7
	c0.7,1.2,0.4,2.8-0.8,3.6c-3.1,2.5-13.5,1.8-16.2-1.2C37.1,373,36.9,372.1,37.2,371.4z"/>
<path class="st112" d="M69.8,366.7c2.9-3.4,5.7-6.2,10.9-6.6c7.1-0.5,8.9-4.5,5.6-9.6c-0.1-0.3-0.1-0.5-0.2-0.8l0.5-0.2
	c3.5,0.8,4.9,4.7,3.1,8.2c-0.8,1.6-2.2,2.9-3.9,3.6c-5.4,1.4-10.6,3.4-15.5,6L69.8,366.7z"/>
<path class="st113" d="M239.1,363.4c0.7,1.1,2.4,1.9,1.8,3.3c-0.8,1.8-2.6,0.8-4,0.9c-1.9,0.1-3.8,0.1-5.8,0.2
	c-1.7,1.2-3.7,2-5.8,2.3c-3.3,0.3-4,2.3-2,4.9c1,1.3,2.9,2.3,1.7,4.2s-3.2,1.5-4.9,0.9c-2-0.7-4.2-0.5-6.2,0.3
	c-1.7,0.7-2.6,1.3-2.5,3.5c0.2,4.8-2,6-7,4.2c-2.3-2-3.9-0.5-5.5,1c-1.3,1.3-2.7,2.5-3.2,4.3c-0.5,1.2-0.8,2.4-1.4,3.5
	c-1.5,2.1-3.5,3.9-5.9,5.1c-2,0-3.8,0-5.1,2.1c-1,1.5-2.7,1.9-4.4,1.6c-1.4-0.2-2.7-0.2-3.5,1.2c-0.6,0.6-1,1.4-1.6,2
	c-2.4,3.4-6.1,4.1-9.8,4.5c-1.1-1.5,0.2-2.4,0.9-3.5c2.2-2,6.2-1.5,7.3-5.2c1-2.8,2.7-4.7,6-4.2c1.7,0.2,2.4-1,3.1-2.2
	c0.3-0.5,0.8-0.9,1.4-1.2c2.2-0.9,4.5,1.9,6.7-0.1l1.3-1.2c1.4-4.8,3.3-9.2,7.9-11.9c0.3-0.2,0.7-0.4,1.1-0.6c2-0.4,4.2-0.2,6.1,0.6
	c3,1,2-0.7,1.3-2.2c-0.2-0.4-0.3-0.8-0.4-1.2c-0.3-3.2,1.5-4.6,4.4-4.8c3.4-0.2,5.8-2,7.4-4.9s4.8-3.4,7.6-4.2
	c3.5-1.4,7.5-0.9,10.5-3.5L239.1,363.4z"/>
<path class="st114" d="M236.5,363.1c0.5,1.2,1.3,2.8-1,2.7c-3.2-0.2-6,1.3-9,1.9c-0.2-0.2-0.3-0.5-0.3-0.7c0-0.3,0-0.4,0.1-0.4
	c3-2.7,3-2.7,1.1-6.1h2.8L236.5,363.1z"/>
<path class="st57" d="M396.8,304c-1,2.5-3.9,2.8-5.5,4.5c-2.8,1.2-5.3,3.1-7.2,5.5l0,0c-2.1,0.3-4.1,0.8-6.2,0.9
	c-3.1,0.3-6.1-1.5-7.2-4.4c-1.3-3.1,0.5-5.5,3-7.3c0.9-0.8,2-1.4,3.1-1.8c3.5-0.7,6.1-2.8,8.2-5.5c0.7,3.7-0.6,5.6-5.2,7.3
	c-2.2,0.8-4.2,1.8-3,4.5c1.1,2.4,3,4,5.8,1.9C385.9,304.2,391.6,304.7,396.8,304z"/>
<path class="st99" d="M383.2,310.4c-1.1,2.3-2.8,2-4.5,0.9c-2.1-1.3-4.1-2.8-3.6-5.7c0.2-1.9,1.8-3.3,3.6-3.4c3.8-0.5,6-2.5,6.3-6.4
	c0.3-0.9,1-1.5,1.9-1.8c0,0.8,0,1.5,0,2.3c0,6,0.9,6.8,7.3,6.8c0.1,2.3-2,2.5-3.1,2.2C386.2,304.1,384.6,306.9,383.2,310.4z"/>
<path class="st56" d="M383.2,310.4c0.4-1.1,0.7-2.3,0.8-3.5c0-3,1.8-3.3,3.9-2.6c2.4,0.8,4.4,0.8,6.2-1.2l1.8-0.9
	c3.1-1.4,6-3.3,9.1-4.6c1.2-1.8,2.7-3.4,4.6-4.5c3.9,0.1,7.8,0.4,10.9-2.9c1.2-1.3,3.1-0.6,4.7-0.7c-4.4,2.1-8.5,4.8-13.5,5.6
	c-2.7,0.5-4.6,3.2-7,4.7c-2.5,1.7-5.1,3-7.9,4.1c-3,1-5.7,2.7-9.3,2.2C385.3,306,385.2,309.6,383.2,310.4z"/>
<path class="st62" d="M384,314c1-3.8,3.7-5.1,7.2-5.5C389.2,310.7,387.1,313,384,314z"/>
<path class="st66" d="M460.5,422.3l1,1.8c-4.6-2.4-9.5-3.8-14.1-6.1c-5.8-3-10.7-7.9-17.6-8.9c-4.7-0.7-7.7-5-12.1-6.7
	c-2.4-1-4.6-2.1-7.3-1.9c-3.3,0.4-5.1-1.2-5.8-4.4c-0.6-2.7-1.9-4.6-5-5c-2-0.2-3.8-1.3-3.6-3.9c0.3-4.1-2.3-4.5-5.3-3.9
	c-1.9,0.5-3.9,0.7-5.8,0.7c-1.7,0-3.5,0.1-4.5-1.6s0.6-2.8,1.4-4c0.4-0.6,0.9-1.2,1.4-1.8c1.2,2.3,2.6,3.8,5.6,3
	c1.7-0.5,3.6,0.5,5.4,0.1c3.5-0.6,5.3,0.5,4.9,4.3c-0.3,2.8,1.3,3.4,3.7,3.1c5.8-0.7,5.9-0.6,6,5.4c0,2,0.5,3,2.7,3.4
	c5,1,9,4.2,13.2,6.8c2.7,1.7,5,3.7,8.5,3.4c1.5,0,3,0.6,4.1,1.7c2,3,5.3,3.2,8.3,3.9c5.7,1.3,9.6,5.4,14,8.8
	C460.1,421,460.4,421.6,460.5,422.3z"/>
<path class="st115" d="M436.8,408.6c-1.8-0.8-3.3-2-5.5-1.2c-1.3,0.3-2.8-0.1-3.8-0.9c-3.2-3.3-7.5-4.9-11.3-7.2
	c-1.9-1.2-3.4-2.7-6.1-2c-2,0.5-3.3-1-2.8-3.4c0.2-1.2,0.4-2.4,0.4-3.6c0-2.2-0.4-3.4-3.2-2.5c-5.6,1.9-6.8,1-6.6-4.8
	c0.1-1.5-0.2-2.9-1.6-2.4c-2.9,1.2-5.8-0.6-8.4,0.2c-4.2,1.3-5.2-0.4-4.9-4.1c0.6-1.2,1.6-2.1,2.7-2.7c2.8-3.7-1.9-3-2.7-4.5
	c0.9-0.9,2.3-1.2,3.4-0.6c1.1,0.5,2,1.3,2.5,2.4c1,2.6-1.2,4.1-2.5,6.7c3.2-1.3,6.7-1.5,10-0.5c2.8,0.8,4.3,2.2,3.8,5.2
	c-0.5,3.1,0,4.8,3.4,2.6c2.3-1.5,4.1-0.7,6.2,0.7c3.9,2.6,7.2,5.4,7.9,10.3c0.7,1.4,2,2.4,3.5,2.7c4.6,0.5,7.6,4.7,12.5,4.8
	c1.9,0.1,3.4,1.7,3.3,3.6C437.1,407.8,437,408.2,436.8,408.6z"/>
<path class="st116" d="M388.5,371.4l-1.8-1.8c-5-0.4-9.1-3.6-14.4-3.4c-2.4,0.1-1.7-1.8-0.1-2.9c11.7-5.8,24-5.4,36.4-3.7
	c0,0.3-0.1,0.7-0.1,1c-1.5,1.5-3.4,1.1-5.2,1.1c-5.5,0.1-10.9,0-16.4,0c-2.4,0-4.8,0.2-6.9,1.6c0.7,1.8,2.2,1.9,3.5,2.1
	c3.4,0.6,6.7,2,9.5,4.1c2,1.6,4.5,2.5,7.1,2.7c2.8,0.1,4.8,1.3,4.9,4.3c0.1,2.8,1.7,4,4.2,4.5c1.6,0.4,3.2,1,4.8,1.3
	c4,0.8,6.1,3.1,5.7,7.3c-0.3,3.6,1.4,4.5,5,5.1c5.8,1.1,12.6,1.5,15,8.7c0.5,1.6,2,2.1,3.4,2.8c4.6,2.3,9.2,4.3,13.7,7.5
	c0.6-2.4-0.9-3.9-1.7-5.5c-1-1.9-1.3-3.7,0.5-5.4s3.8-1.4,5.8-0.2c1.1,0.8,2.2,1.7,3.1,2.7c2.8,2.9,7.4,3,10.3,0.2
	c0.2-0.2,0.3-0.3,0.5-0.5c5.5-6.1,10.8-5.6,15.8,1.7c0.1,0.7-0.1,1.5-0.6,2l-1-0.7c-0.8-0.8-1.9-0.7-2.7-1.5
	c-2.4-2.2-4.4-1.6-6.4,0.9c-3.4,4.3-7.9,5.7-13.2,4.5c-4.2-0.9-5.9,0.6-5.7,4.9c0.1,1.6,1.7,4.2-1.8,4.3c-1.7-0.2-2.6-1.5-3.6-2.6
	c-4-4.4-9.3-6.3-14.8-7.8c-1.3-0.4-2.8-0.7-3.4-2c-3-6.9-8.9-8.6-15.6-9.1c-2.9-0.2-4.4-2.3-5.8-4.5c-0.5-4.3-5.4-9.9-9.3-10.8
	c-1.2-0.2-2.4,0.3-3.2,1.2c-0.9,0.9-2,1.5-3.2,0.7s-1.3-2-0.9-3.2c1.2-3.5,0.1-4.9-3.7-5.8C392.9,376.6,390.1,374.4,388.5,371.4z"/>
<path class="st117" d="M372.2,363.2c-1,1.8-0.7,2.8,1.6,2.7c4.7-0.3,8.8,1.9,13,3.7h-3.7c-4.1-1-7.9-3.5-12.5-2.7
	c-0.7,0.1-1.8-0.2-1.6-1.1C369.2,364.2,370.6,363.1,372.2,363.2z"/>
<path class="st118" d="M226.5,100.2l1.6,2.1c0.7,0.9,2.1,1.5,1.5,3c-0.6,1.3-2,1.1-3.2,1.3c-4,0.7-6.9,4-11,4.6
	c-1.3,0.2-2.5,1.2-3.7-0.1s-0.2-2.5,0.2-3.8C214.4,100,220.1,99.5,226.5,100.2L226.5,100.2z"/>
<path class="st119" d="M220.8,115.7c1.7,0,3.7,0,3.7,2.3c0,1.8-0.8,3.8-2.9,4c-2.4,0.2-4.7,0.7-7,1.5c-0.9,0.4-1.9,0-2.3-0.9
	c-0.5-0.6-0.4-1.5,0.1-2.1C215.1,118.6,217.2,115.7,220.8,115.7z"/>
<path class="st120" d="M246.6,177.6l8.2,7.2c-0.9,3.2-3.3,4.6-6.4,4.9c-3,0.3-6,0.8-9,1.4c-3.7,1.8-3.9,6.4-6.9,8.8
	c-0.7,0.5-1.5,1-2.4,0.4c0.7-1.4,1.5-2.9,2.2-4.3c0.8-1.3,0.5-3-0.8-3.8c-0.2-0.1-0.4-0.2-0.6-0.3c-2.6-1.2-6.5-0.9-6.9-4.6
	c-0.2-2.8,1-5.8,1.5-8.7c1.3-0.5,1.9,0.6,2.8,1.1c0.6,0.4,1.2,0.9,1.8,1.3c2.5,1.6,3.7,0.8,3.4-2.1c-0.6-6.3-1.4-12.5-3.5-18.5
	c0.1-5.2,0.8-6,4.6-5.5c0.6,1.5,1.8,2.8,1.8,4.5c-2.2,0-2.2,1.3-1.8,3.1c1.6,6.5,3.2,12.9,4.4,19.5c0.4,1.8,0.8,3.9,3.3,3.2
	c2.1-0.5,4.1-1.4,4-4.1C246.4,179.8,245.5,178.7,246.6,177.6z"/>
<path class="st79" d="M230.2,200.2l1.9-0.9c0.5,0.5,0.6,1.1,0.5,1.7c-0.1,0.4-0.3,0.8-0.5,1.2c-1.7,3.6-0.6,7.1,3.3,10.2
	c0.7,0.6,1.7,0.7,2.2,1.5c-1.7,1.6-4.5,2-5.5,4.4c-4.6,1.3-8.2,1.2-7.3-5.2c0-0.3-0.5-0.7-0.8-1c-1.6-1.7-0.8-3.2,0.5-4.6
	c1.2-1.1,2.2-2.3,3.1-3.7C228.3,202.7,228.6,201,230.2,200.2z"/>
<path class="st121" d="M227.4,180.3l-1.8-1.8c0.7-7.9,2.7-15.7,2.8-23.7c1.7-2.8,0.5-5.8,0.9-8.8c0.2-1.3,0.2-3,1.7-3.2
	s2.2,1.3,2.6,2.7c1,3,1.4,6.2,1.1,9.3c-4.5,0.2-3.4,3.7-3.6,6.3c-1,4.8-1.1,9.8-2.1,14.6C228.6,177.3,228.7,179.1,227.4,180.3z"/>
<path class="st120" d="M227.4,203.9c-0.2,3.2-4.9,4.4-3.5,8.2c0.3,4.1-1,6.7-5.7,6.4c-1.2,0.1-2.3,0.4-3.4,0.8
	C220.6,215.6,221.4,207.6,227.4,203.9z"/>
<path class="st122" d="M246.6,177.6c0.9,2.5,2.9,4.9-0.5,7.4c-4.1,2.9-7,2.1-8.1-2.8c-1.6-6.9-3.2-13.7-4.8-20.6
	c-0.3-1.2-0.6-2.5,0.6-3.3c1.2-0.8,1.7,0.9,2.7,1.1C240.6,165,241.5,172.4,246.6,177.6z"/>
<path class="st123" d="M232,201.2c0-0.6,0-1.2,0-1.8c2.5-2.7,2.8-7.1,6.4-9.1c3.2-0.6,6.5-0.9,9.8-0.9c1.7,0,3.3,0,4.6-1.2
	s3.1-3,5.1-1.2c2.2,2,1,4.1-0.5,6c-1,1-1.6,2.3-1.8,3.7l-1.7,0.9c-2.4-0.3-4.1-1.9-6-3c-4-2.4-7.4-1.6-10.4,1.9
	C235.8,198.2,235.2,201.3,232,201.2z"/>
<path class="st79" d="M257.4,192.9c0.4-1.3,0.7-2.6,0.8-3.9c0-1.3-1.3-2.9-2.2-1.8c-4.8,5.2-10.8,2.3-16.2,3.1c-0.5,0-0.9,0-1.4,0
	c2.2-1.7,5-1.6,7.3-1.6c3.9,0.1,6.6-1.5,9.1-4C260.7,187,261.4,189.2,257.4,192.9z"/>
<path class="st103" d="M165.5,281.4c2.2,2.1,5.1,2.1,7.8,2.6c2,0.4,3.3,1.1,4.1,2.9c-10.1-1.6-18.5-7.2-27.4-11.8l0.2-0.2
	c4.9-0.3,8.8,2,12.6,4.7L165.5,281.4z"/>
<path class="st124" d="M394.9,201l-1,1.1c-4.2,4.7-8.2,9.5-13.5,13.1c-3.9,2.3-7,5.8-11.3,7.7c-3.5-1.2-3.8-2.1-1.3-4.3
	c1.2-0.9,2.4-1.9,3.5-2.9l-0.2-0.2c0.5-0.4,0.7-1,1.3-1.3c3.5-1.5,5.7-4.6,8.3-7.2c2.4-2.1,4.4-4.5,6.7-6.7c1.7-1.7,3.4-3.4,5.1-5
	c1.4-1.3,3-3.1,5-1.1s0.1,3.5-1.1,5C395.8,199.8,395.4,200.4,394.9,201z"/>
<path class="st125" d="M395.8,237.6c1.3-8.1,2.5-16.2,4.1-24.2c0.6-3.1,0.3-6.3,0.5-9.4c0.2-2.7-1.2-3.8-3.7-3.9
	c-0.7-1.1-0.1-1.8,0.9-2.3c4.6,0.4,5.6,1.6,5.9,7.1c0.1,2.1-1,5,2.7,5.5c-1.8,9-4,17.9-6.2,26.8c-0.6,2-1.5,3.8-4.2,3.2
	C395.3,239.6,395.3,238.5,395.8,237.6z"/>
<path class="st126" d="M369.5,222.2c3.6-2.4,6.6-5.9,10.9-7.3c0.2,0.1,0.4,0.3,0.3,0.6c0,0.2-0.1,0.4-0.1,0.4
	c-7.7,6.9-16.8,12.2-26.6,15.5c-1-0.4-2.7,0.5-3.2-1c-0.4-1.2,0.9-1.8,1.6-2.5c4-4.3,9.2-6.7,14.2-9.4c0.2,3.7-4.1,4-5.2,7.1
	C364.3,224.4,366.7,222.8,369.5,222.2z"/>
<path class="st127" d="M395.8,237.6c0,0.9,0,1.8,0,2.7c1.2,1,0.9,2.3,0.7,3.6c-0.2,1.5,0.5,1.7,1.7,1.6l0.5,0.3
	c0.1,3.9-2.9,6.9-2.9,10.8c-2.5,2-4,2-3.6-1.7C393,249.1,394.2,243.3,395.8,237.6z"/>
<path class="st128" d="M397.7,198.5c-0.8,0.3-1,1-1,1.7l-1.8,0.8c-0.1-1.2,0.3-2.4,1.2-3.2c0.8-0.8,2-1.8,0.7-3
	c-1.5-1.4-2.4,0.3-3.3,1.1c-2.1,1.7-3.5,4.2-6,5.4c0.5-2.8,6.4-9.4,8.7-9.8c2-0.4,4,0.8,4.6,2.7
	C401.9,196.9,399.7,197.7,397.7,198.5z"/>
<path class="st125" d="M380.5,215.8l-0.2-0.9l13.6-12.8C390.7,208,385.9,212.1,380.5,215.8z"/>
<path class="st112" d="M37.2,371.4c3.1,3.4,12.8,5.1,16.2,2.5c2.2-1.6,0.5-2.7-0.9-3.6c-0.9-0.6-2.1-1.2-1.8-2.3
	c0.4-1.4,1.9-1.1,3.1-1.2c5.4-0.1,10.8-0.1,16.2-0.2l0.1,0.2c-0.8,3-3.4,1.9-5.2,2c-2.4,0.2-4.3,0.3-4.9,3.3c-0.6,2.8-3.1,4-5.7,4.5
	c-2.9,0.7-5.9,1-8.9,1c-1.6-0.1-3-0.1-4.2,1.1c-1.8,1-2.7-0.5-3.8-1.5s-2.2-2.5-3.8-3.2l0,0c-1.1-3,0.2-3.7,2.9-2.9
	C36.7,371.3,36.9,371.3,37.2,371.4z"/>
<path class="st129" d="M36.3,371.3c-2-0.1-3,0.8-2.9,2.9l-2.5-2c-0.1-0.5-0.1-1.1-0.2-1.7c0.4-3.6,2.2-1.8,3.7-1l1,0.7L36.3,371.3z"
	/>
<path class="st129" d="M33.4,374.1c3.4,0,4.1,4.3,7.3,4.5c1.9-0.1,3,1.3,4.4,2.1c2.6,1.6,5.6,2.9,4,6.9c-0.2,0.5,0,1.1,0.6,1.3
	c0.1,0,0.2,0.1,0.2,0.1c1,0.4,2.1-0.2,2.5-1.2c0-0.1,0-0.1,0.1-0.2c0.5-2.4,2.3-4.4,4.7-5.1c2.1-0.7,4.3-0.6,5.8,1.3
	c1.5,1.9,0.1,3.4-1.2,4.6s-1.1,2.2,0.2,3.3c1.7,1.3,3,3,3.8,5c0.2,0.7,0,1.3-0.5,1.8c-5-6-11.7-7.6-19.1-7.3
	c-2.5-0.7-4.6-1.6-1.6-4.3c2.1-1.8,0.6-2.8-0.9-3.7C39.8,380.9,36.3,377.8,33.4,374.1z"/>
<path class="st111" d="M34.4,369.5c-1.3-0.1-2.9-1.2-3.7,1c-0.7-0.6-1.4-1.2-2-1.8c-0.6-0.7-0.9-1.6-0.1-2.4c0.6-0.5,1.5-0.5,2,0.1
	C31.9,367.5,33.7,367.8,34.4,369.5z"/>
<path class="st127" d="M399.5,237.6c1.6-9.2,4-18.3,6.4-27.3c-2.2-5.2,0.6-10,1.6-14.9c1.5-2.1,2.4-4.5,2.7-7
	c1.3-6.9,3.1-13.8,5.3-20.5c0.3-0.4,0.9-0.5,1.3-0.3c0.3,2.9-0.5,5.7-1.2,8.5c-4.9,20.1-9.8,40.2-14.7,60.2
	c-0.8,3.2-0.5,6.6-2.2,9.6l-0.2-0.1C396.2,242.7,398.7,240.3,399.5,237.6z"/>
<path class="st130" d="M416.8,167.6c-0.3,0-0.6,0-0.9,0l-0.5-0.4c-1.2-1.6,0.7-4-1.6-5.2c-0.3-0.2-0.6-0.5-0.8-0.8
	c1-1.7,2.6-3,4.4-2c2.5,1.5-0.4,3.8,0.3,5.8C417.4,165.8,417.2,166.7,416.8,167.6z"/>
<path d="M490.6,406.8c-1.5-1.4-3.1-2.8-4.8-4c-4-2.5-6.4-1.8-8.8,2.2c-2.4,3.9-7.5,5.1-11.4,2.7c-0.7-0.5-1.4-1-1.9-1.7
	c-0.9-1.2-2.1-2.2-3.4-3c-1.5-0.8-2.8-0.9-4.1,0.5s-1.1,2.5,0,4c1.4,1.9,3.1,3.8,2.6,6.5c-0.2,0.9-0.2,2-1.2,2.2
	c-0.5,0.1-1.4-0.6-1.8-1.1c-3.5-4.6-9.1-5.5-13.8-8.1c-0.8-0.5-2.6-0.2-2.7-1.3c-0.3-6-5-6.9-9.2-8.6c-2.1-0.8-3.8-2-6.4-1.4
	c-3.1,0.8-5.6-0.5-5-4.3c0.9-5.6-1.5-8.1-6.9-8.6c-1.5-0.1-2.9-1.2-4.3-1.3c-2.8-0.1-3.7-1.3-3.4-4c0.4-3.4-1.2-4.7-4.5-4.4
	c-1.5,0.2-3-0.1-4.3-1c-4.2-2.9-8.5-5.5-13.8-6.2c-1.9-0.2-3.7-1.3-4.8-2.9c10.6-4.9,21.4-1.9,31.9-2.6c2.3,1.2,4.9,1.4,7.3,1.8
	c2.6,1.1,5.5,1.2,8.2,1.8c7.5,2.2,14.6,5.8,22.7,4.6c3,0.7,6.1,0.7,9.1,0c14.8,1.1,27.5-4.2,39.9-11.6c7.8-4.7,15.9-8.9,23.7-13.7
	c1.8-1.1,3.4-2.4,5-3.7c0.8-0.7,1.8-1.5,2.8-0.6s0.2,1.9-0.5,2.7l-6.2,7.7c-1.4,8.9,0,11.1,8.7,12.7c2.9,0.6,5.5,1.4,7.5,3.8
	c2.3,2.8,5.5,2,8.4,2.1c2,0.1,4.4-0.6,5.1,2.4c0.6,2.8-1.3,3.8-3.3,4.6c-3.1,1.3-4.3,3.4-3.8,6.8s-0.3,6.6-0.5,9.9s-2.6,4.5-5.5,5
	c-2.4,0.3-4.9-0.1-7.1-1c-2.2-0.8-3.7,0-5,1.8c-2.9,3.9-3.7,4-7.4,0.8c-1.3-1.1-2.4-2.3-4.1-2.7c-2-0.5-3.7-1.5-5.2-3
	s-3-1.1-4.3,0.3c-2.4,2.6-4.7,2.1-7.2,0.2c-1.3-0.9-3-2.4-4.4-0.8c-1.2,1.5-0.5,3.4,0.9,4.9c1,1,1.9,2,2.8,2.9
	c1.9,1.9,2.8,4,0.8,6.4S492.7,408.6,490.6,406.8z"/>
<path class="st131" d="M513.3,395c2.8-0.8,3.8,1.8,5.4,3.1c2.1,1.8,3.8,3.2,5-0.9c0.8-2.7,3.1-3.5,5.8-2.7c1.9,0.6,3.7,1.4,5.7,1.4
	c4.8,0.1,6.3-1.2,6.3-6c0-3.4,0.9-6.8,0.1-10.2c-0.7-3.2,1.8-4.5,4.3-5.4c1.7-0.6,3.9-0.7,3.6-3.2c-0.3-2.8-2.7-2.5-4.6-2.3
	c-4.1,0.3-7.7-0.2-10.5-3.7c-2-2.5-5.7-1.7-8.4-2.8c-6.5-2.5-8-5.8-5.4-12.7v1.8c-0.2,7.3,1,8.7,8.4,10.1c3,0.6,5.8,1.2,7.9,3.9
	s5.3,2.7,8.3,2.4c3.4-0.4,5.6,0.6,6.1,4.2c0.5,3.4,3.3,3.6,5.8,3.9c2.7,0.3,5.4,0.3,8.1,0.1c3.9-0.3,3.8,1.1,1.8,3.6l-4.5,2.8
	c-3.2,1.7-6.5,2.9-10,0.9l0,0c-1.4-0.9-2.9-0.5-4.4-0.4c-2.2,0.2-3,1.6-2.8,3.8c1,7.5-1.9,11.1-9.5,11.6c-1.7,0.1-3.3,0.1-5-0.1
	c-1.5-0.2-2.7,0-3,1.9c0.2,1.8,1.6,3.9-0.9,5.1c-1.9,0.9-3.7,0.4-5.3-1.1c-2-1.8-4.6-2.8-6.4-4.9C514.3,397.9,512.7,397,513.3,395z"
	/>
<path class="st116" d="M424.1,364c-2.9,0.1-5.8,0.2-8.2-1.8C418.7,362.3,421.5,362.9,424.1,364z"/>
<path class="st116" d="M456,368.6c-2.9,1.4-6.2,1.4-9.1,0H456z"/>
<path class="st132" d="M232,201.2c2-1,2.8-3.1,4.1-4.7c4-5.3,7.8-6.1,13.1-2.3c1.6,1.1,3.8,1.4,4.7,3.3c-3.9,5.7-8.8,10.7-14.5,14.6
	h-0.2c-4.7,1.9-5.2-3-7.5-4.9S230.6,203.1,232,201.2L232,201.2z"/>
<path class="st133" d="M232,201.2c-1.1,4.4,2.4,9.8,7.2,10.9l-1.7,1.9c-5.3,0.6-5.5-4.7-7.8-7.3C228.2,205.2,229.9,202.6,232,201.2z
	"/>
<path class="st134" d="M513.3,395c2.4,4,6.7,5.9,9.8,9.2c1,1.1,2.6,1.2,3.7,0.3c2.1-1.5,0.2-3.3,0.1-4.9c1-0.5,1.5,0.2,1.9,0.9
	c0.8,1.7,1.8,3.6-0.2,4.9c-1.9,1-4.2,1-6.1,0c-6.9-3.2-7.8-2.8-9.2,4.8c-0.5,2.9-4.8,4.3-8.2,2.4c-2.2-1.3-3.8-1.8-6.5-0.5
	c-2.8,1.3-5.5-0.6-7.2-3.2c3.5,0.2,7-0.2,10.4-1c2.3-0.6,3.9,1.8,6.1,2.3c-5.4-2.9-9.5-7.1-13.7-11.4c-0.8-0.7-1.5-1.5-2.1-2.4
	c-0.8-1.2-0.6-2.8,0.4-3.8c1.2-1.2,2.5-0.8,3.7,0.1c3.2,2.2,6.2,4.8,9,7.6c1.5,1.6,3.1,3.2,6.6,2.5c-2.6-2.2-4.9-3.6-6.5-5.7
	c-0.9-1.2-2.1-2.5-1.1-4c1.2-1.8,2.8-2.1,4.7-0.8L513.3,395z"/>
<path class="st135" d="M508.8,392.2c-1.4,0.2-3.3-0.4-4.1,1.3s1.1,2.6,2,3.6c1.3,1.4,2.5,3,4.6,3.5c1.3,0.3,2.2,1.3,1.6,2.7
	c-0.5,1.2-1.8,1.7-3.1,1.3c-1.8-0.4-3.4-1.3-4.7-2.6c-2.8-3.2-5.9-6-9.3-8.5c-0.9-0.6-1.6-1.5-2.7-0.5c-0.9,0.7-1.1,1.9-0.4,2.8
	c0.1,0.1,0.2,0.3,0.4,0.4c4.4,4.5,8.5,9.3,14.5,12c1,0.5,2.6,0.2,2.7,1.9c0.1,0.8-0.4,1.5-1.1,1.8c-1.6,0.8-2.6-0.2-3.5-1.2
	c-1.5-1.8-3.7-2.9-5.6-1.6c-3.2,2.1-5.9,0.9-8.8-0.3c-0.3,0-0.6-0.1-0.8-0.2c0-0.6,0-1.2,0-1.7c0.9,0.1,1.8,0.3,2.7,0.5
	c2,0.6,2.7-0.8,3.5-2c1-1.4,0.3-2.5-0.8-3.5c-1.6-1.4-3.1-2.9-4.4-4.5c-1.5-1.6-1.6-4.1-0.3-5.8c1.6-2,3.8-0.9,5.2,0.3
	c2.7,2.3,4.7,3.5,7.3-0.2C505,389.9,507.5,389.3,508.8,392.2z"/>
<path class="st134" d="M459.6,420.5c2.7-0.5,1.6-2.3,1.3-3.9c-0.9-4.6,1-6.8,5.5-6c5.8,1,10.8,0.7,13.9-5.5c1.3-2.6,3.8-1.1,5.6-0.4
	c1.4,0.6,2.5,2,3.8,3.1c-0.7-0.1-1.5-0.2-2.2-0.4c-1.2-0.4-2.1-2.2-3.6-1c-1.2,1.1,0.1,2.2,0.4,3.3c0.8,2.5-1,2.7-2.5,2.5
	c-5.3-0.7-10.2,3-16,0.5c-3.2-1.3-3.9,2.9-3.3,5.7c0.5,2.1,0.6,3.6-2,3.9l-0.9-0.8C459.1,421.1,459.1,420.8,459.6,420.5z"/>
<path class="st82" d="M528.8,400.5l-1.9-0.9c-1-3.4,1.5-3,3.1-2.5c3.2,0.9,6.6,0.8,9.7-0.3c3.5-0.9,5.7-4.3,5.2-7.9
	c-0.6-6.3,1.3-8,7.5-5.7h-3.2c-1.3,0-2.4,0.2-3,1.6c-0.3,1,0.1,2.2,1,2.8c2.3,2,2.3,3-0.2,5.4c-4.4,4.3-9.1,6.1-15,5.6
	C530.7,398.4,529.3,399.2,528.8,400.5z"/>
<path class="st82" d="M552.5,383.2c3.4,0.1,6.7-0.2,10-0.9c-0.7,1.3-3.8,1.5-1.8,4.1c0.8,1,2.4,1.8,1,3.3c-1,1.1-2.5,0.8-3.8,0.7
	c-1.6-0.1-2.7-1-2.5-2.5C555.5,385.5,553.9,384.4,552.5,383.2z"/>
<path class="st136" d="M413.2,161.1l0.9,0.1c-1.7,8.2-4.2,16.3-5.9,24.5c-0.6,2.8-0.5,5,1,7.2c0.2,1,0,1.9-0.5,2.8
	c-1.5,4.7-2.4,9.6-2.8,14.6c-2.4,2-3.7,1.6-3.6-1.7c0-1.8,0-3.6,0-5.4c0.1-3.1-1.3-4.8-4.5-4.8c1.2-1.5,4.1-2.4,1.7-5
	c-2.1-2.2-4.1-1.5-5.8,0.5c-2,2.4-5,4-6,7.2l-6.4,6.3c-3.1,2.3-5.1,5.9-8.9,7.5l-1.2,0.6c-1-1.6,0.7-2.3,1.2-3.3
	c2.9-0.9,4.5-3.4,6.4-5.5c3.5-1.4,5.7-4.4,7.9-7.1s5-5.2,7.4-7.9c1.7-1.9,3.9-1.9,5.8-1.1c3.1,1.1,4.1-0.1,4.5-3
	c1.1-8.2,3.9-15.9,6.2-23.8C411.1,162.7,412,161.8,413.2,161.1z"/>
<path class="st128" d="M369.5,222.2c-3.2,1.8-5.8,5-10.3,4.4c1.2-4.1,5.8-4.8,7.5-8.1l1.8-1.8c0.9-0.3,1.7-1.1,2.8-0.9
	c0.1,2.3-2.1,2.6-3.2,3.8C365.9,221.8,367.5,222.1,369.5,222.2z"/>
<path class="st137" d="M123.7,259.3c-3.1-3.9-7.6-6.5-12.5-7.4c-5.2-0.8-10.1-3.1-14-6.7c-1.1-1-2.4-1.9-3.6-2.6
	c-1.4-0.9-4.3-0.8-3.6-3.1c0.6-1.9,3.2-1,4.9-1c9-0.1,18-1.3,27,0c3.8,2.1,7.1,4.9,12.1,4.9c3.1,0,6.4,2.9,9.3,4.8
	c2.5,1.6-0.2,5-1,7.3c-0.8,2.3-2.8,0.3-4.1-0.4c-0.5-0.3-0.9-0.8-1.4-1.2c-1.7-1.1-3.7-1.5-4.9,0.1c-1.5,1.9,0.8,2.9,1.9,3.9
	c4.2,3.5,8.5,6.9,12.5,10.9C138.3,266.1,131.7,261.1,123.7,259.3z"/>
<path class="st137" d="M177.4,274c-0.2,0.6-0.4,1.2-0.6,1.7c-1.5,2.6-9.6,4.4-11.9,2.4c-6.2-5.5-11.6-11.9-18.2-17
	c-1.3-1-1.9-2.4,0-3.7c0.8-0.5,1.3-1.3,1.5-2.2c1-3.8,2.2-3.7,5.9-1.9c5.7,2.8,9.8,7.5,14.9,10.7c3.3,2.1,7.1,3.1,7.7,7.8
	C176.9,272.6,177.1,273.3,177.4,274z"/>
<path class="st109" d="M202.8,280.4c4.2,2,3.5,7.2,6.6,10.2c2.6,2.5,4.1,4.8,7.3,1.4c0.8-0.9,1.6,0,2.5,0.2c1.5,1,3,2.1,3.5,3.9
	c0.7,2.3,0.6,4.5-1.1,6.3c-2.5,2.6-5.4,1.8-8.3,0.6c-7.9-4.5-15.3-9.8-23.7-13.4c-0.6-0.4-1.4-0.6-2.1-0.6c-3.6,0.9-6-1.2-8.3-3.3
	l0,0c0.1-3.4,1.5-5.1,5.2-3.9c1.1,0.4,2.4,0.5,3.5,0.1c2.8-1.3,4.5,0,6.2,1.9c0.9,1,1.8,2.2,3.4,1.6s1.6-2,1.6-3.4
	C199.2,278.9,200.4,278.4,202.8,280.4z"/>
<path class="st102" d="M183,272.2c2.2,0.2,2.6,1.7,2.5,3.6c-0.1,1.5-0.8,2.8-2.4,2.6c-1.7-0.2-3.1-1.7-2.9-3.4
	C180.2,273.1,181.2,272.2,183,272.2z"/>
<path class="st100" d="M162.7,279.5l-12.6-4.7c-0.1-0.3-0.1-0.5-0.1-0.8C155.4,273.3,159.7,275,162.7,279.5z"/>
<path class="st138" d="M212.9,302.2h0.5c2.8,0.2,6.1,2.6,8.1-1.1c1.8-3.4,0.2-6.3-2.2-8.9h0.9c1.8,1.1,3.3,2.7,4.1,4.7
	c1.2,2.8,3.8,4.9,6.8,5.4c2.3,0.4,4.5,2,4.2,4c-0.5,3.1-2.4,5.9-5.2,7.5c-2.3,1.3-3.6-1.1-4.9-2.9c-1.7-2.4-3.6-4.2-7-4.2
	c-3.2-0.1-5.6-2.6-8.2-4.4C210.8,301.5,212.1,301.4,212.9,302.2z"/>
<path class="st99" d="M212.9,302.2h-2.7c-0.9-0.1-1.7-0.4-2.5-0.9c-7.4-6-16.3-8.8-25-12.1c-1.5-0.6-2.8-1.9-3.5-3.4
	c3,2.1,7.3,1.2,9.6,2.4c4.3,2.3,10,2.4,13.1,7.1c1.4,2,3,3.8,6.4,2.7C211,297.1,211.3,300.7,212.9,302.2z"/>
<path class="st139" d="M193.7,396.8c-0.1-1.3,0.2-2.6,0.9-3.6c2.5-3.4,3.6,0.2,5.6,1.2c0.4-2.4-1.9-4.8,0.3-6.8
	c1.2-1.1,2.5-1.6,4.1-0.7c1,1.9,2.3,2,4.2,1.1c1.6-0.6,2.5-2.3,2.1-4c-0.5-3.7,3.9-6.9,7.7-5.5c0.8,0.4,1.6,0.7,2.5,1
	c1.1,0.2,2.5,0.7,3.3-0.7c0.6-1.2-0.4-1.9-1-2.8c-3.2-4.1-2.7-5.4,2.2-6.5c1.9-0.4,3.7-1.1,5.6-1.7c-0.9,1.8-2.8,2.9-4.8,2.7
	c-1.2-0.1-2.5,0.1-3.1,1.4c-0.7,1.6,0.5,2.5,1.4,3.5c0.5,0.4,0.9,0.8,1.2,1.3c0.8,1.5,2.6,2.9,1.7,4.8c-1.1,2.4-3.1,0.8-4.8,0.8
	c-2-0.1-3.9,0.1-5.9,0c-3.1-0.2-5.4,0.1-4.9,4.2c0.3,2.7-1.7,3.2-3.9,3.1c-3.2-0.2-4.5,1-4.6,4.5c-0.1,4.4-1.9,5.5-6.3,4.4
	c-2.5-0.6-3,2.5-5.2,2C191.4,398.7,193.3,398.1,193.7,396.8z"/>
<path class="st140" d="M165.5,410.4l-1.8,2.7c-4.7,1.3-8,4.8-11.9,7.3l-1.8,1.1l-1.8,0.8c-2.4,0.1-2.4-1.5-2.4-3.3
	c0.1-4.3-0.6-5-4.8-4.7c-4.7,0.4-9.2-1.2-13.9-1.3c-3.2,0-2.6-3-3.1-5c-1.7-0.4-3.2,0.9-4.6,0c-0.8-2.9,1.9-3.2,3.2-4.5
	c3.2-1.1,5.7-0.5,7.9,2.5c2.7,3.8,7.5,2.8,11.3,3.6c6.5,1.4,6.6,0.8,8.3,8c2.7-1.4,4.2-4,6.4-5.6c0.4-0.3,0.8-0.5,1.2-0.6
	C160.4,411.7,162.7,409.4,165.5,410.4z"/>
<path class="st141" d="M151.8,420.4c3.1-3.8,6-7.9,11.9-7.3c3.2-1.8,7.4-1.4,10-4.6c0.3,0.2,0.4,0.4,0.3,0.7
	c-0.1,0.2-0.2,0.4-0.3,0.4c-0.7,3.8-4.3,3.6-6.9,4.8C161.9,416.5,156.8,418.4,151.8,420.4z"/>
<path class="st142" d="M173.7,409.6c0-0.3,0-0.7-0.1-1c-0.1-0.7,0.3-1.4,0.9-1.8c0.3-0.3,0.7-1,0.9-1c5.3,1.3,8.6-3.1,12.8-4.5
	l5.5-4.5c0.1,1.6-1.3,2.4-1.8,3.7c-4.8,2.6-7.9,8.5-14.7,7.3C175.8,407.5,174.9,409,173.7,409.6z"/>
<path class="st143" d="M119.1,407.7c1.1,0.1,2.1-0.1,3-0.8c1.1-0.9,2.4-1.6,3.7-0.6s0.1,2.2-0.3,3.3c-0.9,2.4,0.8,2.7,2.3,2.6
	c5-0.3,9.8,1.4,14.8,1c3.2-0.2,5.4,1,4.1,4.9c-0.6,1.8-0.2,3.3,1.6,4.2c-0.9,1.5-2.2,2.3-3.8,1.4s-0.9-2.4,0-3.6
	c1.1-1.4,1.1-2.7-0.1-4s-2.5-0.9-3.7-0.1c-3.5,2.2-6.6,2.5-9.6-1.1c-1.3-1.5-3.4-1-5.1-0.2c-1.2,0.5-2.4,1.3-3.9,1.1
	c-2.1-0.2-3.8-0.7-2-3.3c0.6-0.8,2.1-1.5,0.9-2.6c-1-1-2.3-0.4-3.3,0.4c-0.9,0.6-1.7,1.2-2.5,1.9c-6,7.4-13.6,1.8-20.5,2.5
	c-1.6,0.2-2.1-1.4-2.2-2.9c-0.2-3.8-2.8-4.6-6-4.4c-2,0.1-3.9,0.2-5.9,0.2c-3.1,0-5.8,0-3.4-4.6c1.3-2.5-1.2-3.2-3.2-3.5
	c-2.9-0.5-6,0.9-8.8-0.9c0-0.6,0-1.2,0-1.8c3.6,0.2,7.1,0.8,10.7,0.7c2.3,0,4.1,0.8,4.6,3.4c0.8,3.9,2.1,4.7,6.1,3.2
	c3.6-1.4,7.1-1.1,10.7-0.3s3.8,1.8,1.7,4.9c-0.5,0.7-1.5,1.3-0.8,2.3c0.6,0.8,1.6,0.8,2.5,0.8c1.1,0.1,2.1-0.2,3-0.7
	c2.4-1.8,4.6-2.4,7.5-0.8c2.1,1.1,3.6-0.9,5.1-2.1C117.3,407.8,118.1,407.3,119.1,407.7z"/>
<path class="st99" d="M404.9,297.6c-2.6,2.5-5.3,4.6-9.1,4.6C398.3,299.5,401.1,297.4,404.9,297.6z"/>
<path d="M227.4,360.4c5,3.5,5,3.5-0.9,6.4c-3.2,1.1-6.6,1.8-8.9,4.9c-1.4,1.8-4.1,1.8-6.2,2.4c-2.7,0.8-5.3,1.6-4.9,5.3
	c0.2,1.4-0.7,2.8-2.2,3c-0.2,0-0.3,0-0.5,0c-3.1-0.2-5.5,1.8-8.1,2.2c-3.9,0.6-4.5,2.3-3.9,5.8c0.8,5.1-1.2,6.9-6.2,6.2
	c-1.3-0.3-2.7,0-3.8,0.9c-0.5,0.4,0.2,0.2-0.3,0.3c-5.2,1.1-7.8,4.7-11.1,8.6c-2.6,3.1-8,4.8-12.8,5.7l0,0c-0.9,0.6-1.7,1.3-2.5,2
	c-1.2,1-2.1,3-4.1,1.8c-1.9-1.1-1.6-3-1.6-4.9c0-0.3,0.1-0.6,0.2-0.9c0.2-1.6,2.5-3.5,0.4-4.8c-1.5-1-2.8,1.3-4.1,2.2
	c-4,2.8-9.5,2.3-14-1.8c-2.6-2.4-5.3-3.2-8.6-2.2c-1.7,1-3.1,2.4-4.8,3.4c-2,1.4-4.7,0.9-6.1-1c-0.1-0.1-0.2-0.2-0.2-0.4
	c-1.7-2.5-0.3-4.2,2-5.4c1.4-0.8,2.7-1.9,3.7-3.2c1.2-1.4,1.6-3,0.2-4.4c-1.3-1.3-2.7-1-4.1,0c-0.9,0.8-1.9,1.5-2.9,2.1
	c-1.1,0.6-2.6,1-3.4,0c-3.9-5.3-7.4-2.5-11,0.4c-2,1-3.9,2.3-5.5,3.9c-2.9,2.9-4.6,2.6-6.6-0.9c-0.6-1.2-1.9-2-3.2-1.9
	c-2.1,0-4.2,0.2-6.3,0.6c-3.3,0.4-5.8-0.6-5.8-4.5c-0.1-1.7-0.7-3.3-1.9-4.5c-1-1-1.6-2.2-1.8-3.6c0-4.4-0.6-8.2-4.8-10.9
	c-2.1-1.4-0.9-4.4,1.8-5c1.7-0.2,3.3-0.3,5-0.1c1.4,0,3,0.1,3.9-0.9c3.7-4.6,9.6-4.3,14.2-6.8c5.2-4,5.6-7.8,1.2-11
	c-1-5.3-6-7.8-8.5-12.1c-0.6-0.9-1.3-1.7-2-2.4c2.4-0.4,3.4,1,4.6,1.9c7.7,5.6,15.7,10.7,24.1,15.1c5.4,2.8,10.8,5.9,16,9.2
	c3.2,2,6.8,2.5,10.1,3.9c2.9,2,6,3.5,9.7,3.2c2.1-0.2,3.2,1.1,4.4,2.6c2.9,3.4,4,3.5,6.5,0.1c1.4-1.9,3.1-2.2,5.1-2.2
	c8-0.2,15.9-0.2,23.4-3.6l0,0c6.6-1,13.1-3.1,19.7-4.2C209,359.4,218.3,359.3,227.4,360.4L227.4,360.4z"/>
<path class="st114" d="M180.1,365c-6.9,5-15.1,3.3-22.7,4.5c-2.2,0.3-4.1-0.1-5,3c-1.1,3.7-6.3,3.6-8-0.4c-1.4-3.1-3.2-3.5-5.9-3.5
	c-2.9,0.1-5.7-1.2-7.4-3.6c15.1,5.6,30.4,3.9,45.6,0.5C177.7,365.2,178.9,365.1,180.1,365z"/>
<path class="st114" d="M227.4,360.4c-9.8,0.3-19.7-1.2-29.3,1c-6,1.4-11.9,3.3-18.1,3.5c7.1-2.6,14.4-4.3,21.9-5.2
	c7.8-0.9,15.6-1.7,23.5-0.2C226.1,359.8,226.8,360.1,227.4,360.4z"/>
<path class="st144" d="M85.4,360.4c-7.4,2.1-13,9-21.5,8.2c-0.5,0-0.9,0-1.3,0.2c-1.2,0.4-2.2,1.1-2.3,2.5c0,1.1,0.7,2.1,1.8,2.3
	c4.1,1,4.6,3.9,4.2,7.3c-0.3,2.9,0.2,5.4,2.7,7.2c1.1,0.8,1.9,1.8,1.3,3.5c-1.2,3.8,1.2,4.5,4.2,4.2c2.1-0.2,4.1-1,6.2-0.9
	c2.4,0.1,4.4,0.1,4.9,3.3s2.5,2,3.9,0.6c2-2,3.9-4.1,6.9-4.8c0.5-0.6,1.4-0.6,2,0l0,0c-3.1,4.4-7.1,8.1-11.8,10.8
	c-3.6,2.2-6.4,0.2-5.9-4.1c0.3-2.5-0.8-3.1-2.7-2.9c-2.1,0.3-4.2,0.4-6.3,0.2c-6.3-0.4-9.7-4.9-8.2-11c0.8-3.2-0.2-4.5-3.5-4.4
	c-0.4,0-1-0.1-1.3,0.1c-5,2.7-9.6,0.9-14.1-1.4l-3.7-2.7c-1-2.7,0.9-3.2,2.5-2.5c3.6,1.4,6.8-0.3,10.2-0.5c2.8-0.2,5.6-1.4,5.6-5.2
	c0-2.2,1.6-2.5,3.4-2.7c2.5-0.2,5.1,0.9,7.5-0.8C74.4,363.1,79.7,361.3,85.4,360.4z"/>
<path class="st145" d="M157.3,412.3c3.3-1.8,6.4-4.3,9.9-5.2c2.9-0.8,4-2.1,4.7-4.6c0.7-2.8,1.9-5.2,5.6-4c1.7,0.6,2.8-0.6,4-1.6
	s2.5-1.9,4.5-1.3c3.6,1.2,5.5-0.6,4.9-4.5c-0.2-1.3-0.5-2.6-0.6-4c-0.1-1.1,0.3-2.6,1.3-2.6c4,0.2,6.8-3.5,10.6-3
	c3.2,0.5,3.9-1.1,3.4-3.6c-0.3-1.6-0.2-3,1.3-3.4c5.7-1.6,11.2-4.1,16.3-7.3c0.9-0.6,2.3-0.4,3.5-0.5v0.9c-2.6,0.9-5.6,1-7.3,3.6
	c-2.2,2.5-4.7,4.4-8.2,4.6c-4.1,0.2-4.3,0.7-3.6,5.4l0,0c0.8,2.2-0.1,3.1-2.2,2.7s-4-0.8-6,0.1l0,0c-4.2,2.4-7.8,5.1-7.1,10.8
	c0.1,0.7-0.7,1.3-1.1,2l-0.9,0.9c-2.4,2.1-4.9-1.4-7.3,0l-0.9,0.9c-0.9,1.1-1.7,2.9-3.5,2.3c-4-1.4-5,0.9-5.6,4
	c-0.5,4.5-4.6,3.9-7.3,5.4C162.9,411.7,160.3,412.8,157.3,412.3z"/>
<path class="st142" d="M204.6,386.8c-3.9,0.2-5.2,1.8-3.2,5.5c0.7,1.3,1.2,3.2-0.3,4.1c-1.8,1-2.5-0.7-3-2.2c-0.6-2-2-1.8-3.5-1
	C197.2,387.5,200.6,385.3,204.6,386.8z"/>
<path class="st114" d="M207.4,381.3c-1.8-4.8-1.2-6.2,3.4-6.3c3.4-0.1,5.8-2,8.4-3.7c-1.4,3.4-4,5.4-7.5,5.4S207,378.1,207.4,381.3z
	"/>
<path class="st141" d="M188.3,401.4c-1.4,1.2-3.4,1.7-4.3,3.6c-0.9,1.8-2.7,2.3-4.7,1.4c-1.7-0.8-3.2-0.3-4.7,0.4
	c0.2-0.5,0.4-1.1,0.6-1.6C180.2,406.4,183.3,400.6,188.3,401.4z"/>
<path class="st114" d="M191,396.8c0.3-1.1,1-2.4,0.8-3.4c-1.2-6.1,2.8-7.9,7.4-9.3C194.6,387.1,193.2,392.2,191,396.8z"/>
<path class="st114" d="M199.2,384.1c1.7-1.6,3.8-1,5.6-0.7s2.5-0.5,2.6-2.1c1.6,0.8,2.4,2.2,1.4,3.7s-2.4,0.9-3.5,0
	C203.4,383.6,201.3,384.2,199.2,384.1z"/>
<path class="st114" d="M172.8,405c0-3.5,0.6-6.2,5.1-4.8c1.8,0.6,2.7-1.1,4-1.6c-0.3,2-1.3,3.9-3.4,3.1
	C175,400.5,174,402.7,172.8,405z"/>
<path class="st114" d="M182.8,397.7c2.4-2.3,4.9,0.9,7.3,0C187.7,401.3,185.2,397.3,182.8,397.7z"/>
<path class="st146" d="M459.6,420.5c0,0.3,0,0.7,0,1c-2.2-0.2-3.6-1.9-4.8-3.2c-3.7-3.8-8.2-5.3-13.1-6c-2.4-0.4-3.6-2-4.8-3.7
	c-0.9-3-2.5-5.1-6.1-4.2c-0.3,0.1-0.7,0.2-0.9,0.1c-3.6-3.8-9.9-3.1-13.1-7.6c-0.5-0.5-0.5-1.4,0-1.9c2.6,2.2,4.9,4.9,9.1,3
	c1.7-0.8,10.9,5.7,11.6,7.8c0.8,2.5,2.5,3.1,4.9,3.9c4.6,1.5,9.4,2.9,12.8,6.8C456.6,417.9,458.1,419.2,459.6,420.5z"/>
<path class="st117" d="M416.8,395c0,0.6,0,1.3,0,1.9c-0.4-5.5-4.8-7.8-8.4-10.8c-1.9-1.6-3.2-0.9-4.6,0.5c-0.9,1.1-2.5,1.4-3.7,0.8
	c-1.2-0.5-1.7-1.9-1.3-3.1c0.3-1.7,1.8-4-0.2-4.9c-2.6-1.1-5.6-2.4-8.6-1.3c-0.7,0.2-1.2,0.9-1.9,1.1c-1.1,0.3-2.6,0.8-3.3-0.4
	s0.6-1.9,1.3-2.6c1.4-1.4,3-2.6,2.6-4.9c3.7,2,6.7,5.4,11.4,5.6c2.8,0.1,1.5,2.4,1.1,3.8c-0.4,1.6-1.4,3.5,0,4.6s2.6-0.7,3.8-1.5
	c0.7-0.5,1.7-0.8,2.6-0.6C412.6,384.2,416.7,389.3,416.8,395z"/>
<path class="st147" d="M227.4,180.3c0-6.1,2.2-12,1.9-18.2c-0.1-1.5,0.9-1.2,1.8-1c3.4,6.2,2.9,13.3,4.1,20c0.3,1.8-1.5,3.3-3.8,2
	C230,182.3,228.7,181.2,227.4,180.3z"/>
<path class="st128" d="M372.3,214.9c3.1-2.4,5.2-5.9,8.9-7.5C378.8,210.6,376.7,214.2,372.3,214.9z"/>
<path class="st130" d="M399.5,237.6l-1,8.1c-0.9,0.6-1.3,2.4-2.8,1.5c-1.1-0.7-0.6-1.8-0.4-2.9c0.2-1.3,0.4-2.7,0.6-4L399.5,237.6z"
	/>
<path class="st148" d="M44.4,381.4c5.3,1.8,11,2,16.4,0.6c3.3-0.9,4.3,2.2,3.5,4.6c-1.2,3.8-0.4,7,2.5,9.3s6.7,2.3,10.4,1.4
	c0.9-0.2,1.8-0.4,2.7-0.4c2.1,0,3.5,0.5,2,2.9c-1.1,1.7-1.9,3.5,0.1,4.8s3.9,0.4,5.7-1.2c3.4-3.2,6.4-6.8,10.5-9.1
	c0.5-1,1.3-1.7,2.3-2.1c1.2-0.7,2.8-0.5,3.8,0.5c1.2,1.2,0.8,2.4,0.1,3.7c-1.2,2.3-3.4,3.7-5.2,5.8c1.6,1,2.5,0,3.4-0.6
	c3.6-2.8,7.1-5.6,10.4-8.7c1.6-1.5,3.2-2.6,5.1-0.8s1.1,3.8-0.4,5.6c-2.1,2.6-5.4,3.7-7.7,6.2c-2.4,2.8-2.2,3.4,1.3,4.9
	c2.2,0.9,4.1-1.2,6.1,0.1c-2,2.7-4.1,5.1-7.7,2.1c-0.9-0.9-2.3-0.9-3.1,0c-0.2,0.2-0.3,0.3-0.4,0.5c-1.6,2.2-3.9,2-6.2,2
	c-1.9,0-3.5-0.6-4-2.3s1.3-2.1,2.4-2.8c0.8-0.5,1.7-0.9,1.5-2s-1.3-1-2.2-1.1c-3.7-0.5-7.1-1.2-11,0.5c-4.4,2-6.4,0.3-6.8-4.4
	c-0.2-2.7-2.2-2.4-4-2.5c-3.5-0.2-7.3,1-10.4-1.8c-2.1-1.7-3.3-4.2-5.8-5.5c-1.4-0.7-1.1-1.8,0.3-2.7s3.6-1.6,2.8-3.9
	c-0.6-1.5-2.4-1.8-3.9-1.5c-2.2,0.5-5,1.1-4.8,3.9c0.4,5.4-3.4,2.7-5.5,3.1c-0.8,0.1-1.5-1-1-1.6C50.9,384.3,46.8,383.2,44.4,381.4z
	"/>
<path class="st130" d="M408.6,195.7V193c0.3-8.3,3-16.1,5.4-23.9c0.3-0.9,0.7-1.7,1.9-1.6l0.2,0.1c-0.1,6.3-3,12-4.2,18
	C411.2,189.1,411.5,193,408.6,195.7z"/>
<path class="st149" d="M415.8,167.5c-2,6.8-4.7,13.5-5.4,20.6c0,1.8-0.7,3.5-1.8,4.9c-2.2-0.9-3.3-3.4-2.5-5.6
	c1.7-6.4,3.7-12.8,5-19.3c0.5-2.5,1.5-4.8,2.9-6.9c1.7-0.1,3,0.1,2.4,2.4C416.2,164.9,416,166.2,415.8,167.5z"/>
<path class="st150" d="M117.2,408.6c-2.7,1.5-5.2,1.6-8.4,0.3c-3.8-1.6-3.8-2.8-0.9-5s5.5-4.2,8.2-6.4c1.7-1.4,3.2-3.3,1.1-5.3
	c-1.9-1.8-3.2,0.3-4.5,1.5c-3.4,3-6.7,6-10.1,9.1c-1.6,1.5-3.7,2.3-5.1,0.4s0.8-2.7,2.2-3.6c0.6-0.4,1.5-0.9,1.6-1.5
	c0.5-1.8,3.9-2.7,2.3-4.8c-1.8-2.4-3.8,0.3-5.6,0.8h-1.8c1.8-1.3,3.1-3.4,5.6-3.6c1.7-0.1,3.4-0.2,4.4,1.6c1.6,3.2,3.6,2.7,5.6,0.5
	s4.6-3.5,7-0.9s1,5-1.3,7c-0.8,0.9-1.7,1.7-2.8,2.3c-1.7,0.8-3.9,1.3-2.5,3.7s3.6,2.7,5.9,1.4c1.6-0.9,3-2,4.5-3
	c0.3,0.2,0.4,0.4,0.3,0.6s-0.2,0.3-0.3,0.3c-0.7,1.7-2.6,2.2-3.7,3.6L117.2,408.6z"/>
<path class="st145" d="M122.7,404.2v-1c3.7-1.7,6.7-1.2,9.7,1.9c4.3,4.4,9.7,4.2,14.2,0.1c1.2-1.1,2.3-2.7,4.2-1.4
	c2.2,1.4,1.1,3.1,0.4,4.8c-0.3,0.8-1.1,1.5-1.2,2.4c-0.2,1.5-0.6,3.2,0.8,4.3c1.8,1.4,2.6-0.7,3.6-1.5c0.7-0.8,1.7-1.3,2.8-1.4
	c-2,2.2-4.1,4.4-6.1,6.6c-0.5,0.5-1.1,1.2-1.9,0.9c-0.9-0.4-1.1-1.4-1.1-2.3c0-1.2,0.1-2.4-0.1-3.6c-0.1-1.7-1.4-3.5-2.7-3.1
	c-3.5,1.1-6.4-1-9.6-1.1c-3.4-0.1-6-0.5-7.4-4.3C127.7,403,124.8,404.4,122.7,404.2z"/>
</svg>
